<svg class="app-icon" width="128" height="128" xmlns="http://www.w3.org/2000/svg"><g fill="none" fill-rule="evenodd"><path d="M38.458 0h51.084c13.373 0 18.222 1.392 23.11 4.007 4.89 2.615 8.726 6.451 11.341 11.34 2.615 4.89 4.007 9.738 4.007 23.111v51.084c0 13.373-1.392 18.222-4.007 23.11-2.615 4.89-6.451 8.726-11.34 11.341-4.89 2.615-9.738 4.007-23.111 4.007H38.458c-13.373 0-18.222-1.392-23.11-4.007-4.89-2.615-8.726-6.451-11.341-11.34C1.392 107.763 0 102.915 0 89.542V38.458c0-13.373 1.392-18.222 4.007-23.11 2.615-4.89 6.451-8.726 11.34-11.341C20.237 1.392 25.085 0 38.458 0z" fill="#263238"/><g fill-rule="nonzero"><path fill="#FFF" d="M103.745 48H91l12.115 16.354L91.456 81h12.824L115 64.354zM24.255 48H37L24.885 64.354 36.544 81H23.72L13 64.354z"/><path d="M87.809 49v18.575H91v8.537h-3.186V81h-9.94v-4.888H64V67.88L77.21 49h10.599zm-9.135 11.233l-4.786 7.342h4.786v-7.342zM58.78 66.087a13.473 13.473 0 0 0 2.898-8.238 9.814 9.814 0 0 0-2.683-6.997c-1.79-1.9-4.632-2.851-8.528-2.851a14.224 14.224 0 0 0-6.091 1.29 10.453 10.453 0 0 0-4.503 4.06c-1.156 1.84-1.78 4.186-1.873 7.039h9.928c0-1.47.131-2.473.392-3.012.223-.52.748-.848 1.315-.818 1.073 0 1.61.77 1.61 2.3 0 1.872-1.179 3.99-3.537 6.355a91.287 91.287 0 0 1-9.58 8.098V81H62v-8.238H51.428a27.376 27.376 0 0 0 7.352-6.675z" fill="#F49B08"/></g></g></svg>
