<?xml version="1.0" encoding="UTF-8"?>
<svg width="189px" height="52px" viewBox="0 0 189 52" version="1.1" xmlns="http://www.w3.org/2000/svg" xmlns:xlink="http://www.w3.org/1999/xlink">
    <!-- Generator: Sketch 58 (84663) - https://sketch.com -->
    <title>btn--primary--small--deconstructed</title>
    <desc>Created with Sketch.</desc>
    <g id="Markenportal" stroke="none" stroke-width="1" fill="none" fill-rule="evenodd">
        <g id="Artboard-Copy-6" transform="translate(-1032.000000, -7928.000000)">
            <g id="btn--primary--small--deconstructed" transform="translate(1032.000000, 7928.000000)">
                <rect id="Rectangle" stroke="#CBCFD2" x="8.5" y="4.5" width="121" height="39" rx="4"></rect>
                <g id="icons-/-arrow--right" transform="translate(102.000000, 17.000000)" fill="#CBCFD2">
                    <polygon id="arrow--right" transform="translate(6.949747, 7.949747) rotate(-45.000000) translate(-6.949747, -7.949747) " points="8.44974747 4.44974747 10.4497475 4.44974747 10.4497475 11.4497475 3.44974747 11.4497475 3.44974747 9.44974747 8.44974747 9.44974747"></polygon>
                </g>
                <text id="Text" font-family="ModeratTrial-Medium, Moderat Trial" font-size="16" font-weight="400" line-spacing="24" fill="#B0B6BA">
                    <tspan x="24" y="28">Wayfarer</tspan>
                </text>
                <g id="Lining" transform="translate(146.000000, 4.000000)" fill="#FBA308">
                    <rect id="Rectangle" x="2" y="0" width="1" height="40"></rect>
                    <rect id="Rectangle" x="0" y="0" width="5" height="1"></rect>
                    <rect id="Rectangle-Copy" x="0" y="39" width="5" height="1"></rect>
                </g>
                <g id="Lining" transform="translate(122.500000, 25.000000) rotate(90.000000) translate(-122.500000, -25.000000) translate(120.000000, 17.000000)" fill="#FBA308">
                    <rect id="Rectangle" x="2" y="0" width="1" height="16"></rect>
                    <rect id="Rectangle" x="0" y="0" width="5" height="1"></rect>
                    <rect id="Rectangle-Copy" x="0" y="15" width="5" height="1"></rect>
                </g>
                <g id="Lining" transform="translate(99.500000, 25.000000) rotate(90.000000) translate(-99.500000, -25.000000) translate(97.000000, 17.000000)" fill="#FBA308">
                    <rect id="Rectangle" x="2" y="0" width="1" height="16"></rect>
                    <rect id="Rectangle" x="0" y="0" width="5" height="1"></rect>
                    <rect id="Rectangle-Copy" x="0" y="15" width="5" height="1"></rect>
                </g>
                <g id="lining-/-rectangle--left" transform="translate(155.000000, 16.000000)" fill="#FBA308">
                    <rect id="Rectangle" x="3" y="0" width="31" height="18" rx="1"></rect>
                    <polygon id="Rectangle" points="3 6 3 12 0 9"></polygon>
                </g>
                <text id="40px" font-family="ModeratTrial-Regular, Moderat Trial" font-size="10" font-weight="normal" fill="#FFFFFF">
                    <tspan x="161" y="28">40px</tspan>
                </text>
                <g id="lining-/-rectangle--bottom" transform="translate(84.000000, 0.000000)" fill="#FBA308">
                    <rect id="Rectangle" x="0" y="0" width="30" height="16.2857143" rx="1"></rect>
                    <polygon id="Rectangle" transform="translate(15.000000, 17.000000) scale(1, -1) rotate(90.000000) translate(-15.000000, -17.000000) " points="16.5 14 16.5 20 13.5 17"></polygon>
                </g>
                <text id="16px" font-family="ModeratTrial-Regular, Moderat Trial" font-size="10" font-weight="normal" fill="#FFFFFF">
                    <tspan x="89.12" y="11">16px</tspan>
                </text>
                <g id="lining-/-rectangle--top" transform="translate(106.000000, 33.000000)" fill="#FBA308">
                    <rect id="Rectangle" x="0" y="2.71428571" width="32" height="16.2857143" rx="1"></rect>
                    <polygon id="Rectangle" transform="translate(16.000000, 1.500000) rotate(90.000000) translate(-16.000000, -1.500000) " points="17.5 -1.5 17.5 4.5 14.5 1.5"></polygon>
                </g>
                <text id="16px" font-family="ModeratTrial-Regular, Moderat Trial" font-size="10" font-weight="normal" fill="#FFFFFF">
                    <tspan x="112.12" y="47">16px</tspan>
                </text>
                <g id="Lining" transform="translate(16.500000, 25.000000) rotate(90.000000) translate(-16.500000, -25.000000) translate(14.000000, 17.000000)" fill="#FBA308">
                    <rect id="Rectangle" x="2" y="0" width="1" height="16"></rect>
                    <rect id="Rectangle" x="0" y="0" width="5" height="1"></rect>
                    <rect id="Rectangle-Copy" x="0" y="15" width="5" height="1"></rect>
                </g>
                <g id="lining-/-rectangle--top" transform="translate(0.000000, 33.000000)" fill="#FBA308">
                    <rect id="Rectangle" x="0" y="2.71428571" width="32" height="16.2857143" rx="1"></rect>
                    <polygon id="Rectangle" transform="translate(16.000000, 1.500000) rotate(90.000000) translate(-16.000000, -1.500000) " points="17.5 -1.5 17.5 4.5 14.5 1.5"></polygon>
                </g>
                <text id="16px" font-family="ModeratTrial-Regular, Moderat Trial" font-size="10" font-weight="normal" fill="#FFFFFF">
                    <tspan x="6.12" y="47">16px</tspan>
                </text>
            </g>
        </g>
    </g>
</svg>