<?xml version="1.0" encoding="UTF-8"?>
<svg width="26px" height="24px" viewBox="0 0 26 24" version="1.1" xmlns="http://www.w3.org/2000/svg" xmlns:xlink="http://www.w3.org/1999/xlink">
    <!-- Generator: Sketch 58 (84663) - https://sketch.com -->
    <title>i--bold</title>
    <desc>Created with Sketch.</desc>
    <defs>
        <polygon id="path-1" points="0 0.000145454545 25.008 0.000145454545 25.008 23.0837818 0 23.0837818"></polygon>
    </defs>
    <g id="Markenportal" stroke="none" stroke-width="1" fill="none" fill-rule="evenodd">
        <g id="Artboard-Copy-6" transform="translate(-1122.000000, -8977.000000)">
            <g id="i--bold" transform="translate(1112.000000, 8967.000000)">
                <rect id="Rectangle" x="0" y="0" width="44" height="44"></rect>
                <g id="1-Atoms-/-1.5-Icons-/-20-Mailbox_Bold" transform="translate(6.000000, 6.000000)">
                    <g id="Group-3" transform="translate(4.571429, 4.363636)">
                        <mask id="mask-2" fill="white">
                            <use xlink:href="#path-1"></use>
                        </mask>
                        <g id="Clip-2"></g>
                        <path d="M14.7968,20.1746909 L4.57051429,20.1746909 L4.57051429,12.9965091 L14.7968,12.9965091 C17.9053714,12.9965091 20.4379429,14.6081455 20.4379429,16.5863273 C20.4379429,18.5659636 17.9053714,20.1746909 14.7968,20.1746909 L14.7968,20.1746909 Z M12.5110857,2.90923636 C15.6196571,2.90923636 18.1522286,4.51941818 18.1522286,6.49905455 C18.1522286,8.47723636 15.6196571,10.0874182 12.5110857,10.0874182 L4.57051429,10.0874182 L4.57051429,2.90923636 L12.5110857,2.90923636 Z M19.9190857,10.9659636 C21.6562286,9.80087273 22.7236571,8.22705455 22.7236571,6.49905455 C22.7236571,2.91505455 18.1430857,0.000145454545 12.5110857,0.000145454545 L-0.000914285714,0.000145454545 L-0.000914285714,23.0837818 L14.7968,23.0837818 C20.4288,23.0837818 25.0093714,20.1688727 25.0093714,16.5863273 C25.0093714,14.1906909 22.9590857,12.0932364 19.9190857,10.9659636 L19.9190857,10.9659636 Z" id="Fill-1" fill="#35444C" mask="url(#mask-2)"></path>
                    </g>
                </g>
            </g>
        </g>
    </g>
</svg>