<svg width="97" height="100" xmlns="http://www.w3.org/2000/svg"><g fill="none" fill-rule="evenodd"><path d="M-15-15h128v128H-15z"/><path fill="#FFF" d="M19.138 28.072v49.099l-2.4 4.547-2.491-4.547V26.979"/><path stroke="#525252" stroke-width="2.088" stroke-linecap="round" stroke-linejoin="round" d="M19.138 28.072v49.099l-2.4 4.547-2.491-4.547V26.979"/><g><path d="M19.086 29.521c0 .46-.772.832-1.726.832-.953 0-3.035-.372-3.035-.832" stroke="#525252" stroke-width="2.088" stroke-linecap="round" stroke-linejoin="round"/><path d="M19.138 28.072s-.069-1.884 1.592-2.42c3.455-1.116 6.04 3.737 8.07 8.27 0-18.904-19.485-21.349-19.485-21.349s-4.743 3.09-8.273 5.591c13.776 0 13.205 8.815 13.205 8.815v2.937s4.463.108 4.859-.357c.036-.535.032-1.487.032-1.487" fill="#35444C"/><path d="M19.138 28.072s-.069-1.884 1.592-2.42c3.455-1.116 6.04 3.737 8.07 8.27 0-18.904-19.485-21.349-19.485-21.349s-4.743 3.09-8.273 5.591c13.776 0 13.205 8.815 13.205 8.815v2.937s4.463.108 4.859-.357c.036-.535.032-1.487.032-1.487z" stroke="#35444C" stroke-width="2.088" stroke-linejoin="round"/><path d="M84.367 15.114v52.73s-1.144 5.596-8.712 5.596-21.03-7.082-24.023-11.718c-2.991-4.634-6.076-9.664-6.076-19.196 0-9.532 7.141-33.825 11.092-38.256C58.93 1.712 63.425.161 66.24 1.385c2.816 1.224 13.2 6.734 14.872 7.958 1.671 1.224 3.256 2.797 3.256 5.771" fill="#FFF"/><path d="M51.614 61.798c2.991 4.635 16.456 11.718 24.022 11.718 7.568 0 8.712-5.597 8.712-5.597V15.19s-1.144 47.158-6.379 52.359c-5.232 5.2-26.355-5.75-26.355-5.75" fill="#CBCFD2"/><path d="M84.348 15.19v52.73s-1.144 5.596-8.712 5.596c-7.567 0-21.031-7.083-24.022-11.718-2.992-4.635-6.077-9.665-6.077-19.197 0-9.53 7.142-33.824 11.092-38.255 2.282-2.559 6.777-4.11 9.592-2.885 2.815 1.224 13.198 6.733 14.87 7.958 1.672 1.224 3.257 2.797 3.257 5.77z" stroke="#35444C" stroke-width="2.088"/><path d="M84.398 23.817c1.144 4.023 6.9 18.83 9.452 23.378 2.552 4.547 4.049 13.029-9.239 18.887" stroke="#35444C" stroke-width="2.088" stroke-linecap="round"/><path d="M84.348 15.19c0 1.137-1.497 3.497-2.377 5.422-.88 1.924-8.446 17.751-8.446 33.141 0 15.39 10.823 14.167 10.823 14.167M83.115 11.692C77.308 13.44 70.972 24.284 70.18 26.121c-.791 1.836-3.534 2.438-6.071 1.137-2.728-1.4-11.194-6.335-13.61-8.562M47.993 25.25c1.858 1.5 14.165 8.309 15.21 8.885 1.045.577 1.51.693.348 3.924-1.16 3.23-2.657 10.462-1.956 19.904.686 9.233 3.93 12.865 5.44 13.788" stroke="#35444C" stroke-width="2.088"/><path d="M26.258 76.24c-1.986-8.43 3.908-16.968 13.382-19.31 9.476-2.342 20.928 4.035 20.928 12.321v5.755s.036 5.348-3.408 6.204c-3.445.856-4.162-4.065-8.252-1.783-4.09 2.283-5.884 3.78-9.327 3.78-3.446 0-12.364-2.895-13.323-6.966" fill="#FFF"/><path d="M26.258 76.24c-1.986-8.43 3.908-16.968 13.382-19.31 9.476-2.342 20.928 4.035 20.928 12.321v5.755s.036 5.348-3.408 6.204c-3.445.856-4.162-4.065-8.252-1.783-4.09 2.283-5.884 3.78-9.327 3.78-3.446 0-12.364-2.895-13.323-6.966z" stroke="#525252" stroke-width="2.088" stroke-linecap="round" stroke-linejoin="round"/><path d="M58.167 62.907c-1.184-2.189.321 2.233.808 3.135 3.583 6.627-18.755 15.58-21.411 16.67 6.016 1.33 10.806-5.704 18.51-1.702 4.849.041 5.676-11.477 2.093-18.103" fill="#CBCFD2"/><path d="M26.258 76.24c-1.986-8.43 3.908-16.968 13.382-19.31 9.476-2.342 20.928 4.035 20.928 12.321v5.755s.036 5.348-3.408 6.204c-3.445.856-4.162-4.065-8.252-1.783-4.09 2.283-5.884 3.78-9.327 3.78-3.446 0-12.364-2.895-13.323-6.966z" stroke="#35444C" stroke-width="2.088" stroke-linecap="round" stroke-linejoin="round"/><path d="M33.05 81.852c.861 1.64 2.225 3.494 2.225 5.847 0 4.178-2.8 10.91 4.09 10.91 6.888 0 14.78-12.265 15.212-17.613M48.764 92.334c.287-2.21.647-10.41-1.004-12.122" stroke="#35444C" stroke-width="2.088" stroke-linecap="round" stroke-linejoin="round"/><path d="M34.385 75.298l2.644-1.622c.224-.138.49-.198.754-.17l2.66.284a.236.236 0 0 1 .118.425l-2.348 1.733c-.256.19-.576.27-.892.221l-2.847-.436a.237.237 0 0 1-.09-.435M27.756 67.237l.454 5.257a.238.238 0 0 1-.4.193l-1.906-1.728M51.737 73.177l2.97-3.354a.477.477 0 0 1 .736.025l.931 1.207a.472.472 0 0 1-.19.723l-4.175 1.772c-.232.1-.44-.183-.272-.373" fill="#35444C"/><path d="M18.977 70.151s-2.821 3.219-4.476 3.253c0 1.435-.035 4.513-.035 4.513l2.466 2.797 2.207-3.543-.162-7.02z" fill="#CBCFD2"/><path stroke="#35444C" stroke-width="2.088" stroke-linecap="round" stroke-linejoin="round" d="M19.138 28.072v49.099l-2.4 4.547-2.491-4.547V26.979"/><path d="M61.57 26.03c-1.74 3.51-3.888 8.364-4.794 12.53M55.205 22.128c-1.468 3.578-3.517 9.02-4.522 13.815" stroke="#35444C" stroke-width="2.088" stroke-linecap="round"/></g></g></svg>