<?xml version="1.0" encoding="UTF-8"?>
<svg width="97px" height="100px" viewBox="0 0 97 100" version="1.1" xmlns="http://www.w3.org/2000/svg" xmlns:xlink="http://www.w3.org/1999/xlink">
    <!-- Generator: Sketch 58 (84663) - https://sketch.com -->
    <title>1 Atoms / 1.5 Icons / 64 Illu explosion--und--feuer Copy</title>
    <desc>Created with Sketch.</desc>
    <g id="Markenportal" stroke="none" stroke-width="1" fill="none" fill-rule="evenodd">
        <g id="Artboard-Copy-6" transform="translate(-618.000000, -8972.000000)">
            <g id="1-Atoms-/-1.5-Icons-/-64-Illu-klettersport" transform="translate(602.000000, 8958.000000)">
                <g id="klettersport" transform="translate(17.000000, 14.000000)">
                    <g id="Group-3" transform="translate(12.879518, 26.080345)">
                        <polyline id="Fill-1" fill="#FFFFFF" points="5.25883373 1.99172414 5.25883373 51.0905747 2.85883373 55.6377011 0.367460241 51.0905747 0.367460241 0.89862069"></polyline>
                        <polyline id="Stroke-2" stroke="#525252" stroke-width="2.088" stroke-linecap="round" stroke-linejoin="round" points="5.25883373 1.99172414 5.25883373 51.0905747 2.85883373 55.6377011 0.367460241 51.0905747 0.367460241 0.89862069"></polyline>
                    </g>
                    <g id="Group-50" transform="translate(0.000000, 0.792989)">
                        <path d="M18.0864193,28.7281609 C18.0864193,29.187931 17.3137928,29.5603448 16.3595759,29.5603448 C15.4065157,29.5603448 13.324588,29.187931 13.324588,28.7281609" id="Stroke-4" stroke="#525252" stroke-width="2.088" stroke-linecap="round" stroke-linejoin="round"></path>
                        <path d="M18.1383518,27.2790805 C18.1383518,27.2790805 18.0689542,25.3951724 19.7298699,24.8595402 C23.1847133,23.7434483 25.7709301,28.5963218 27.8008096,33.1296552 C27.8008096,14.2250575 8.31512289,11.7802299 8.31512289,11.7802299 C8.31512289,11.7802299 3.57179759,14.8698851 0.041773494,17.3710345 C13.8183518,17.3710345 13.2469783,26.185977 13.2469783,26.185977 L13.2469783,29.1227586 C13.2469783,29.1227586 17.7104,29.2308046 18.1059663,28.7664368 C18.1418217,28.2308046 18.1383518,27.2790805 18.1383518,27.2790805" id="Fill-6" fill="#35444C"></path>
                        <path d="M18.1383518,27.2790805 C18.1383518,27.2790805 18.0689542,25.3951724 19.7298699,24.8595402 C23.1847133,23.7434483 25.7709301,28.5963218 27.8008096,33.1296552 C27.8008096,14.2250575 8.31512289,11.7802299 8.31512289,11.7802299 C8.31512289,11.7802299 3.57179759,14.8698851 0.041773494,17.3710345 C13.8183518,17.3710345 13.2469783,26.185977 13.2469783,26.185977 L13.2469783,29.1227586 C13.2469783,29.1227586 17.7104,29.2308046 18.1059663,28.7664368 C18.1418217,28.2308046 18.1383518,27.2790805 18.1383518,27.2790805 Z" id="Stroke-8" stroke="#35444C" stroke-width="2.088" stroke-linejoin="round"></path>
                        <path d="M83.3668819,14.3210345 L83.3668819,67.0509195 C83.3668819,67.0509195 82.2229783,72.6474713 74.6551711,72.6474713 C67.0873639,72.6474713 53.6242313,65.5647126 50.6320386,60.9290805 C47.6410024,56.2945977 44.5562795,51.2647126 44.5562795,41.7325287 C44.5562795,32.2014943 51.6972916,7.9083908 55.6483277,3.47735632 C57.9303518,0.918735632 62.4250024,-0.63183908 65.2390747,0.592298851 C68.0554602,1.81643678 78.4384964,7.32563218 80.1109783,8.54977011 C81.7823036,9.77390805 83.3668819,11.3474713 83.3668819,14.3210345" id="Fill-10" fill="#FFFFFF"></path>
                        <path d="M50.6142265,61.0052874 C53.6052627,65.6397701 67.0695518,72.7225287 74.6362024,72.7225287 C82.2040096,72.7225287 83.3479133,67.125977 83.3479133,67.125977 L83.3479133,14.3972414 C83.3479133,14.3972414 82.2040096,61.5547126 76.9691181,66.7558621 C71.7365398,71.9558621 50.6142265,61.0052874 50.6142265,61.0052874" id="Fill-12" fill="#CBCFD2"></path>
                        <path d="M83.3476819,14.3967816 L83.3476819,67.1266667 C83.3476819,67.1266667 82.2037783,72.7232184 74.6359711,72.7232184 C67.0693205,72.7232184 53.6050313,65.6404598 50.6139952,61.0048276 C47.6218024,56.3703448 44.5370795,51.3404598 44.5370795,41.8082759 C44.5370795,32.2772414 51.6792482,7.98413793 55.6291277,3.55310345 C57.9111518,0.994482759 62.4058024,-0.556091954 65.2210313,0.668045977 C68.0362602,1.89218391 78.4192964,7.40137931 80.0917783,8.62551724 C81.7631036,9.84965517 83.3476819,11.4232184 83.3476819,14.3967816 Z" id="Stroke-14" stroke="#35444C" stroke-width="2.088"></path>
                        <path d="M83.3984578,23.0236782 C84.5423614,27.0466667 90.2988916,41.8547126 92.8504096,46.4018391 C95.4019277,50.9489655 96.8986024,59.4305747 83.6112771,65.2891954" id="Stroke-16" stroke="#35444C" stroke-width="2.088" stroke-linecap="round"></path>
                        <path d="M83.3476819,14.3967816 C83.3476819,15.5335632 81.8510072,17.8944828 80.9708145,19.8186207 C80.0917783,21.7427586 72.5251277,37.5703448 72.5251277,52.96 C72.5251277,68.3508046 83.3476819,67.1266667 83.3476819,67.1266667" id="Stroke-18" stroke="#35444C" stroke-width="2.088"></path>
                        <path d="M82.115412,10.8991954 C76.3079904,12.6474713 69.9719904,23.4911494 69.1797012,25.327931 C68.3885687,27.1635632 65.6462072,27.7658621 63.1085687,26.4647126 C60.3812434,25.0647126 51.9147373,20.1302299 49.4997012,17.9026437" id="Stroke-20" stroke="#35444C" stroke-width="2.088"></path>
                        <path d="M46.9930602,24.4577011 C48.8506024,25.9577011 61.1582651,32.7657471 62.2026988,33.3416092 C63.2482892,33.9186207 63.7120964,34.0347126 62.5508434,37.2657471 C61.390747,40.4956322 59.8940723,47.7278161 60.594988,57.1703448 C61.2808675,66.4025287 64.5252048,70.0347126 66.0346024,70.9577011" id="Stroke-22" stroke="#35444C" stroke-width="2.088"></path>
                        <path d="M25.2577349,75.4477011 C23.2718072,67.0178161 29.1659759,58.4787356 38.6399036,56.1362069 C48.1161446,53.7948276 59.5679185,60.1718391 59.5679185,68.458046 L59.5679185,74.2132184 C59.5679185,74.2132184 59.603759,79.5614943 56.1604819,80.4166667 C52.7148916,81.2729885 51.9977831,76.3522989 47.9079518,78.633908 C43.8181205,80.9166667 42.0241928,82.4143678 38.5809157,82.4143678 C35.1353253,82.4143678 26.2165783,79.5189655 25.2577349,75.4477011" id="Fill-24" fill="#FFFFFF"></path>
                        <path d="M25.2577349,75.4477011 C23.2718072,67.0178161 29.1659759,58.4787356 38.6399036,56.1362069 C48.1161446,53.7948276 59.5679185,60.1718391 59.5679185,68.458046 L59.5679185,74.2132184 C59.5679185,74.2132184 59.603759,79.5614943 56.1604819,80.4166667 C52.7148916,81.2729885 51.9977831,76.3522989 47.9079518,78.633908 C43.8181205,80.9166667 42.0241928,82.4143678 38.5809157,82.4143678 C35.1353253,82.4143678 26.2165783,79.5189655 25.2577349,75.4477011 Z" id="Stroke-26" stroke="#525252" stroke-width="2.088" stroke-linecap="round" stroke-linejoin="round"></path>
                        <path d="M57.1666313,62.1136782 C55.9834024,59.9251724 57.4881735,64.3470115 57.9751133,65.2493103 C61.5583422,71.8757471 39.2204145,80.8286207 36.5636434,81.9194253 C42.5804145,83.2493103 47.3700048,76.2148276 55.074294,80.2171264 C59.9228723,80.2585057 60.7498602,68.7401149 57.1666313,62.1136782" id="Fill-28" fill="#CBCFD2"></path>
                        <path d="M25.2577349,75.4477011 C23.2718072,67.0178161 29.1659759,58.4787356 38.6399036,56.1362069 C48.1161446,53.7948276 59.5679185,60.1718391 59.5679185,68.458046 L59.5679185,74.2132184 C59.5679185,74.2132184 59.603759,79.5614943 56.1604819,80.4166667 C52.7148916,81.2729885 51.9977831,76.3522989 47.9079518,78.633908 C43.8181205,80.9166667 42.0241928,82.4143678 38.5809157,82.4143678 C35.1353253,82.4143678 26.2165783,79.5189655 25.2577349,75.4477011 Z" id="Stroke-30" stroke="#35444C" stroke-width="2.088" stroke-linecap="round" stroke-linejoin="round"></path>
                        <path d="M32.0506024,81.0589655 C32.9111325,82.6991954 34.2747952,84.5532184 34.2747952,86.906092 C34.2747952,91.0842529 31.475759,97.8164368 38.3646265,97.8164368 C45.253494,97.8164368 53.1451566,85.5509195 53.5765783,80.2026437" id="Stroke-32" stroke="#35444C" stroke-width="2.088" stroke-linecap="round" stroke-linejoin="round"></path>
                        <path d="M47.7644145,91.5408046 C48.0512578,89.3304598 48.4109687,81.1304598 46.7604627,79.4189655" id="Stroke-34" stroke="#35444C" stroke-width="2.088" stroke-linecap="round" stroke-linejoin="round"></path>
                        <path d="M33.3845398,74.5048276 L36.028588,72.8829885 C36.2529735,72.7450575 36.5189976,72.6852874 36.7827084,72.7128736 L39.4429494,72.9967816 C39.6592386,73.0197701 39.7344193,73.2933333 39.5609253,73.422069 L37.2129735,75.1554023 C36.957359,75.3450575 36.6369735,75.4243678 36.3212145,75.376092 L33.4736,74.9404598 C33.2549976,74.9071264 33.1960096,74.6209195 33.3845398,74.5048276" id="Fill-36" fill="#35444C"></path>
                        <path d="M26.7564916,66.4442529 L27.2098892,71.7005747 C27.2272386,71.9155172 26.9716241,72.0396552 26.810853,71.8936782 L24.9035759,70.166092" id="Fill-38" fill="#35444C"></path>
                        <path d="M50.7374072,72.383908 L53.7076241,69.0298851 C53.9054072,68.8057471 54.2604916,68.8172414 54.4432386,69.0551724 L55.3743229,70.262069 C55.562853,70.5068966 55.4691663,70.8643678 55.1834795,70.9850575 L51.0092145,72.7574713 C50.7767325,72.8574713 50.5696964,72.5735632 50.7374072,72.383908" id="Fill-40" fill="#35444C"></path>
                        <path d="M17.9767711,69.3581609 C17.9767711,69.3581609 15.155759,72.5765517 13.5006265,72.6110345 C13.5006265,74.0455172 13.4659277,77.1236782 13.4659277,77.1236782 L15.9318554,79.9213793 L18.1386988,76.3777011 L17.9767711,69.3581609 Z" id="Fill-42" fill="#CBCFD2"></path>
                        <polyline id="Stroke-44" stroke="#35444C" stroke-width="2.088" stroke-linecap="round" stroke-linejoin="round" points="18.1383518 27.2790805 18.1383518 76.377931 15.7383518 80.9250575 13.2469783 76.377931 13.2469783 26.185977"></polyline>
                        <path d="M60.5709301,25.2366667 C58.8302072,28.7470115 56.6823518,33.6010345 55.7755566,37.7677011" id="Stroke-46" stroke="#35444C" stroke-width="2.088" stroke-linecap="round"></path>
                        <path d="M54.2049735,21.3349425 C52.7372145,24.9131034 50.6876723,30.3544828 49.6825639,35.1498851" id="Stroke-48" stroke="#35444C" stroke-width="2.088" stroke-linecap="round"></path>
                    </g>
                </g>
            </g>
        </g>
    </g>
</svg>