<svg width="26" height="24" xmlns="http://www.w3.org/2000/svg"><g fill="none" fill-rule="evenodd"><path d="M-10-10h44v44h-44z"/><path d="M15.368 20.538H5.142V13.36h10.226c3.109 0 5.641 1.612 5.641 3.59 0 1.98-2.532 3.588-5.64 3.588zM13.083 3.273c3.108 0 5.64 1.61 5.64 3.59 0 1.978-2.532 3.588-5.64 3.588H5.142V3.273h7.94zm7.408 8.057c1.737-1.165 2.804-2.74 2.804-4.467 0-3.584-4.58-6.5-10.212-6.5H.57v23.084h14.797c5.632 0 10.213-2.914 10.213-6.497 0-2.396-2.05-4.493-5.09-5.62z" fill="#35444C"/></g></svg>