<svg width="31" height="31" xmlns="http://www.w3.org/2000/svg"><g fill="none" fill-rule="evenodd"><path d="M-6-6h44v44H-6z"/><path d="M20.56 30.42c-2.521 0-5.043-.96-6.963-2.88L2.029 15.972c-2.706-2.704-2.706-7.104 0-9.81a6.945 6.945 0 0 1 9.81 0l9.854 9.857c.76.759 1.18 1.77 1.18 2.846a4 4 0 0 1-1.18 2.847c-1.52 1.52-4.173 1.52-5.693 0l-8.1-8.102 2.056-2.057 8.1 8.102a1.122 1.122 0 0 0 1.58 0 1.12 1.12 0 0 0 0-1.58L9.782 8.218a4.031 4.031 0 0 0-5.696 0 4.034 4.034 0 0 0 0 5.696l11.568 11.568c2.702 2.706 7.108 2.707 9.813 0 2.704-2.704 2.704-7.105 0-9.812L11.854 2.057 13.911 0l13.613 13.613c3.84 3.842 3.84 10.089 0 13.928a9.818 9.818 0 0 1-6.964 2.88" fill="#35444C"/></g></svg>