<svg class="i--chain" width="20px" height="20px" viewBox="0 0 20 20">
  <path d="M13.6618182,13 L11,13 L11,14.5 L13.6618182,14.5 C16.0538182,14.5 18,12.5307692 18,10 C18,7.46923077 16.0538182,5.5 13.6618182,5.5 L11,5.5 L11,7 L13.6618182,7 C15.2516364,7 16.5454545,8.31769231 16.5454545,10 C16.5454545,11.6823077 15.2516364,13 13.6618182,13 Z" id="right" fill="#35444C"></path>
  <rect id="mid" fill="#35444C" x="6" y="9" width="8" height="2"></rect>
  <path d="M6.33818182,7 L9,7 L9,5.5 L6.33818182,5.5 C3.94618182,5.5 2,7.46923077 2,10 C2,12.5307692 3.94618182,14.5 6.33818182,14.5 L9,14.5 L9,13 L6.33818182,13 C4.74836364,13 3.45454545,11.6823077 3.45454545,10 C3.45454545,8.31769231 4.74836364,7 6.33818182,7 Z" id="left" fill="#35444C"></path>
</svg>
