<svg width="104" height="117" xmlns="http://www.w3.org/2000/svg"><g fill="none" fill-rule="evenodd"><path d="M-13-7h128v128H-13z"/><path d="M80 56l22-12-20-10 10-20-12-6-6 4c-2.667 16-2 26 2 30 6 6 4 14 4 14zM44 70h4l20 10-12 16-22-8 10-18zM14 70c12 6.667 21.333 0 28-20l-8-18-2 8-20 4c-2.667-1.333-4-3.333-4-6-8 14.667-6 25.333 6 32z" fill="#FFF"/><path fill="#CBCFD2" d="M62.594 94.38l-8.157 19.14-5.069-16.207"/><path stroke="#35444C" stroke-width="1.98" d="M62.594 94.38l-8.157 19.14-5.069-16.207"/><path fill="#FFF" d="M39.346 92.186l-19.47-4.23 17.344-7.228"/><path stroke="#35444C" stroke-width="1.98" d="M39.346 92.186l-19.47-4.23 17.344-7.228"/><g><path d="M44.903 93.073c-6.507 0-11.782-5.266-11.782-11.762 0-6.495 5.275-11.762 11.782-11.762" fill="#FFF"/><path d="M44.903 93.073c-6.507 0-11.782-5.266-11.782-11.762 0-6.495 5.275-11.762 11.782-11.762" stroke="#525252" stroke-width="1.98"/><path d="M39.78 91.907c-3.941-1.903-6.66-5.932-6.66-10.595 0-6.496 5.275-11.762 11.782-11.762 1.956 0 3.801.476 5.424 1.317" stroke="#35444C" stroke-width="1.98"/><path d="M63.569 75.046c7.069 0 12.8 5.72 12.8 12.778 0 7.057-5.731 12.778-12.8 12.778a12.79 12.79 0 0 1-10.528-5.508" fill="#FFF"/><path d="M63.569 75.046c7.069 0 12.8 5.72 12.8 12.778 0 7.057-5.731 12.778-12.8 12.778a12.79 12.79 0 0 1-10.528-5.508" stroke="#525252" stroke-width="1.98"/><path d="M74.441 81.311c.613 1.975.924 2.872.486 5.04-1.394 6.92-8.143 11.4-15.073 10.007-3.32-.667-6.248-1.31-8.068-3.864 1.341 4.324 4.601 6.837 9.36 7.793 6.929 1.392 13.441-2.747 14.836-9.664.726-3.604.438-6.536-1.541-9.312" fill="#CBCFD2"/><path d="M58.282 76.183a12.775 12.775 0 0 1 5.287-1.137c7.069 0 12.799 5.721 12.799 12.778s-5.73 12.777-12.799 12.777a12.79 12.79 0 0 1-10.528-5.506" stroke="#35444C" stroke-width="1.98"/><path d="M59.546 95.248a12.383 12.383 0 0 1-11.603 8.044c-6.838 0-12.38-5.533-12.38-12.358 0-3.488 1.447-6.638 3.774-8.885" fill="#FFF"/><path d="M59.546 95.248a12.383 12.383 0 0 1-11.603 8.044c-6.838 0-12.38-5.533-12.38-12.358 0-3.488 1.447-6.638 3.774-8.885" stroke="#525252" stroke-width="1.98"/><path d="M59.546 93.194c-1.348 6.69-8.656 8.551-15.358 7.206a12.34 12.34 0 0 1-7.64-4.949c1.298 4.18 4.45 6.612 9.05 7.536 6.704 1.346 13.7-2.55 15.048-9.241.703-3.485-.677-2.649-1.1-.552" fill="#CBCFD2"/><path d="M59.546 95.248a12.383 12.383 0 0 1-11.603 8.044c-6.838 0-12.38-5.533-12.38-12.358 0-3.321 1.313-6.336 3.447-8.556" stroke="#35444C" stroke-width="1.98"/><path fill="#FFF" d="M67.767 82.378l27.83 10.473-29.496.683"/><path stroke="#35444C" stroke-width="1.98" d="M67.767 82.378l27.83 10.473-29.496.683"/><path fill="#FFF" d="M67.235 84.899l17.602-20.445L62.51 75.046"/><path stroke="#35444C" stroke-width="1.98" d="M67.235 84.899l17.602-20.445L62.51 75.046"/><path fill="#FFF" d="M51.787 95.627l-18.666 9.42 8.687-15.467"/><path stroke="#525252" stroke-width="1.98" d="M51.787 95.627l-18.666 9.42 8.687-15.467"/><path fill="#FFF" d="M49.369 74.798l11.474-22.386 1.751 26.465"/><path stroke="#35444C" stroke-width="1.98" d="M49.369 74.798l11.474-22.386 1.751 26.465"/><path fill="#FFF" d="M60.076 69.878L94.02 48.124l-18.999-10.95 9.094-18.786-11.338-6.168-11.054 28.238 16.811 9.69z"/><path stroke="#35444C" stroke-width="1.98" d="M60.076 69.878L94.02 48.124l-18.999-10.95 9.094-18.786-11.338-6.168-11.054 28.238 16.811 9.69zM84.115 18.388l7.6-4.38-11.4-6.57-7.6 4.38"/><path stroke="#35444C" stroke-width="1.98" d="M92.529 13.604l-9.907 19.19 18.998 10.95-7.599 4.38M75.023 37.174l7.599-4.38"/><path d="M38.91 41.329A20.375 20.375 0 0 1 40 51.317c-1.555 11.152-11.807 18.94-22.897 17.398-5.314-.739-9.853-3.49-12.972-7.379 2.528 6.753 7.916 10.439 15.532 11.498 11.089 1.542 21-5.68 22.555-16.831.81-5.806.081-10.448-3.308-14.674" fill="#CBCFD2"/><path d="M15.376 47.283c-2.798-2.764-5.56-3.472-6.89-9.106-3.313 6.472-6.63 15.559-4.153 22.293 5.998 16.3 29.86 17.79 37.007.839 3.935-11.26-2.44-20.977-7.55-28.822-.845 8.677-4.83 9.208-8.904 13.226" stroke="#35444C" stroke-width="1.98"/><g><path d="M16.361 53.824c-4.688-3.707-4.639-8.642-4.166-11.986 1.136-8.073 6.632-15.985 11.323-22.591 3.214 13.49 11.78 21.852 10.051 29.256" fill="#FFF"/><path d="M16.361 53.824c-4.688-3.707-4.639-8.642-4.166-11.986 1.136-8.073 6.632-15.985 11.323-22.591 3.214 13.49 11.78 21.852 10.051 29.256" stroke="#35444C" stroke-width="1.98"/></g><path d="M29.582 51.524c.082 1.236-.108 2.1-.459 2.794-1.558-1.877-3.945-3.988-5.508-7.03-1.788 3.013-3.87 6.61-3.825 9.87.005.31.03.655.092 1.01-.81-.38-1.545-.89-2.164-2.102-1.129 2.834-2.065 6.69-.365 9.096 4.118 5.824 15.811 4.221 18.027-3.06 1.077-4.764-2.736-7.98-5.798-10.578" fill="#CBCFD2"/><g stroke="#35444C" stroke-width="1.98"><path d="M5.944 21.486C2.961 24.278.571 29.451 1.063 32.854"/></g><g stroke="#35444C" stroke-width="1.98"><path d="M43.011 33.322c2.009-3.557 2.739-9.205 1.248-12.305"/></g><g stroke="#35444C" stroke-width="1.98"><path d="M25.375 12.697c2.07-3.522 2.898-9.157 1.462-12.283"/></g><g><path fill="#FFF" d="M37.612 79.97L27.87 62.091 44.902 72.9"/><path stroke="#35444C" stroke-width="1.98" d="M37.612 79.97L27.87 62.091 44.902 72.9"/></g></g></g></svg>