<?xml version="1.0" encoding="UTF-8"?>
<svg width="104px" height="117px" viewBox="0 0 104 117" version="1.1" xmlns="http://www.w3.org/2000/svg" xmlns:xlink="http://www.w3.org/1999/xlink">
    <!-- Generator: Sketch 58 (84663) - https://sketch.com -->
    <title>1 Atoms / 1.5 Icons / 64 Illu explosion--und--feuer</title>
    <desc>Created with Sketch.</desc>
    <g id="Markenportal" stroke="none" stroke-width="1" fill="none" fill-rule="evenodd">
        <g id="Artboard-Copy-6" transform="translate(-428.000000, -8966.000000)">
            <g id="1-Atoms-/-1.5-Icons-/-64-Illu-explosion--und--feuer" transform="translate(414.000000, 8958.000000)">
                <g id="explosion--und--feuer" transform="translate(14.000000, 8.000000)">
                    <path d="M80,56 C80,56 87.3333333,52 102,44 L82,34 L92,14 L80,8 L74,12 C71.3333333,28 72,38 76,42 C82,48 80,56 80,56 Z" id="Path-17" fill="#FFFFFF"></path>
                    <path d="M44,70 L48,70 L68,80 C60,90.6666667 56,96 56,96 C56,96 48.6666667,93.3333333 34,88 L44,70 Z" id="Path-2" fill="#FFFFFF"></path>
                    <path d="M14,70 C26,76.6666667 35.3333333,70 42,50 L34,32 L32,40 L12,44 C9.33333333,42.6666667 8,40.6666667 8,38 C8.30890912e-13,52.6666667 2,63.3333333 14,70 Z" id="Path" fill="#FFFFFF"></path>
                    <g id="Group-82">
                        <polyline id="Fill-1" fill="#CBCFD2" points="62.5940739 94.3804893 54.4374 113.520315 49.3684435 97.313499"></polyline>
                        <polyline id="Stroke-2" stroke="#35444C" stroke-width="1.98" points="62.5940739 94.3804893 54.4374 113.520315 49.3684435 97.313499"></polyline>
                        <g id="Group-6" transform="translate(19.847826, 79.878583)">
                            <polyline id="Fill-4" fill="#FFFFFF" points="19.4982304 12.3072408 0.0273173913 8.07706602 17.3717522 0.849687379"></polyline>
                            <polyline id="Stroke-5" stroke="#35444C" stroke-width="1.98" points="19.4982304 12.3072408 0.0273173913 8.07706602 17.3717522 0.849687379"></polyline>
                        </g>
                        <g id="Group-81" transform="translate(0.000000, 0.189262)">
                            <g id="Group-10" transform="translate(32.152174, 68.621359)">
                                <path d="M12.7504435,24.2626311 C6.2435087,24.2626311 0.968334783,18.9964951 0.968334783,12.5007087 C0.968334783,6.00492233 6.2435087,0.738786408 12.7504435,0.738786408" id="Fill-7" fill="#FFFFFF"></path>
                                <path d="M12.7504435,24.2626311 C6.2435087,24.2626311 0.968334783,18.9964951 0.968334783,12.5007087 C0.968334783,6.00492233 6.2435087,0.738786408 12.7504435,0.738786408" id="Stroke-9" stroke="#525252" stroke-width="1.98"></path>
                            </g>
                            <path d="M39.7802217,91.7177592 C35.8388087,89.8151767 33.120287,85.785332 33.120287,81.1224 C33.120287,74.6266136 38.3954609,69.3604777 44.9023957,69.3604777 C46.8581348,69.3604777 48.7030043,69.8364 50.3261348,70.677565" id="Stroke-11" stroke="#35444C" stroke-width="1.98"></path>
                            <g id="Group-16" transform="translate(52.108696, 74.155340)">
                                <path d="M11.4598109,0.70104466 C18.5288543,0.70104466 24.2597022,6.42207379 24.2597022,13.4790058 C24.2597022,20.5359379 18.5288543,26.256967 11.4598109,26.256967 C7.09598478,26.256967 3.24326739,24.0776854 0.932745652,20.7495495" id="Fill-13" fill="#FFFFFF"></path>
                                <path d="M11.4598109,0.70104466 C18.5288543,0.70104466 24.2597022,6.42207379 24.2597022,13.4790058 C24.2597022,20.5359379 18.5288543,26.256967 11.4598109,26.256967 C7.09598478,26.256967 3.24326739,24.0776854 0.932745652,20.7495495" id="Stroke-15" stroke="#525252" stroke-width="1.98"></path>
                            </g>
                            <path d="M74.4410413,81.122068 C75.05415,83.0965922 75.3645848,83.9942039 74.92665,86.1624175 C73.5330196,93.081 66.7843891,97.5613107 59.8539326,96.1689612 C56.5333891,95.5015631 53.6064326,94.8585146 51.7859543,92.3051359 C53.1274761,96.6282816 56.3870413,99.1418155 61.145563,100.098087 C68.0749109,101.48933 74.5873891,97.3510194 75.9821283,90.4335437 C76.7083239,86.8298155 76.420063,83.8979126 74.4410413,81.122068" id="Fill-17" fill="#CBCFD2"></path>
                            <path d="M58.2815804,75.9935068 C59.8936239,75.2630214 61.6830587,74.8568272 63.56895,74.8568272 C70.6379935,74.8568272 76.3677326,80.5778563 76.3677326,87.6347883 C76.3677326,94.6917204 70.6379935,100.411643 63.56895,100.411643 C59.2051239,100.411643 55.3512978,98.233468 53.0407761,94.905332" id="Stroke-19" stroke="#35444C" stroke-width="1.98"></path>
                            <g id="Group-24" transform="translate(35.478261, 81.796117)">
                                <path d="M24.0680087,13.2630602 C22.3151609,17.9603029 17.7805957,21.3061476 12.4644,21.3061476 C5.62707391,21.3061476 0.0847043478,15.7732738 0.0847043478,8.94876893 C0.0847043478,5.46014757 1.53155217,2.31020583 3.85870435,0.0634097087" id="Fill-21" fill="#FFFFFF"></path>
                                <path d="M24.0680087,13.2630602 C22.3151609,17.9603029 17.7805957,21.3061476 12.4644,21.3061476 C5.62707391,21.3061476 0.0847043478,15.7732738 0.0847043478,8.94876893 C0.0847043478,5.46014757 1.53155217,2.31020583 3.85870435,0.0634097087" id="Stroke-23" stroke="#525252" stroke-width="1.98"></path>
                            </g>
                            <path d="M59.5462696,93.0050738 C58.1980957,99.6956563 50.8895739,101.556181 44.1875087,100.210317 C40.9756174,99.5650544 38.3092043,97.7310932 36.547487,95.2618311 C37.8457696,99.4422 40.9977913,101.873831 45.5988783,102.798006 C52.3020522,104.14387 59.2979217,100.246841 60.6460957,93.5562583 C61.3490087,90.0720641 59.9686826,90.9076951 59.5462696,93.0050738" id="Fill-25" fill="#CBCFD2"></path>
                            <path d="M59.5462696,95.0591767 C57.7934217,99.7564194 53.2588565,103.102264 47.9426609,103.102264 C41.1053348,103.102264 35.5629652,97.5693903 35.5629652,90.7448854 C35.5629652,87.4233903 36.8756609,84.4084777 39.0099,82.1882447" id="Stroke-27" stroke="#35444C" stroke-width="1.98"></path>
                            <g id="Group-32" transform="translate(65.413043, 81.902913)">
                                <polyline id="Fill-29" fill="#FFFFFF" points="2.35420435 0.285442718 30.1835739 10.7590544 0.687834783 11.4419476"></polyline>
                                <polyline id="Stroke-31" stroke="#35444C" stroke-width="1.98" points="2.35420435 0.285442718 30.1835739 10.7590544 0.687834783 11.4419476"></polyline>
                            </g>
                            <g id="Group-36" transform="translate(62.086957, 64.194175)">
                                <polyline id="Fill-33" fill="#FFFFFF" points="5.14756304 20.5153515 22.7503239 0.0706135922 0.42341087 10.6626524"></polyline>
                                <polyline id="Stroke-35" stroke="#35444C" stroke-width="1.98" points="5.14756304 20.5153515 22.7503239 0.0706135922 0.42341087 10.6626524"></polyline>
                            </g>
                            <g id="Group-40" transform="translate(32.152174, 88.543689)">
                                <polyline id="Fill-37" fill="#FFFFFF" points="19.6343348 6.89379029 0.968334783 16.3148388 9.65607391 0.847363107"></polyline>
                                <polyline id="Stroke-39" stroke="#525252" stroke-width="1.98" points="19.6343348 6.89379029 0.968334783 16.3148388 9.65607391 0.847363107"></polyline>
                            </g>
                            <g id="Group-44" transform="translate(48.782609, 52.019417)">
                                <polyline id="Fill-41" fill="#FFFFFF" points="0.586167391 22.588934 12.0600587 0.202875728 13.8117978 26.6685845"></polyline>
                                <polyline id="Stroke-43" stroke="#35444C" stroke-width="1.98" points="0.586167391 22.588934 12.0600587 0.202875728 13.8117978 26.6685845"></polyline>
                            </g>
                            <polygon id="Fill-45" fill="#FFFFFF" points="60.0756717 69.6888641 94.0206065 47.9347864 75.0219978 36.9852524 84.1155196 18.1984951 72.7779978 12.0303204 61.7243022 40.2691165 78.5354543 49.9591165"></polygon>
                            <polygon id="Stroke-47" stroke="#35444C" stroke-width="1.98" points="60.0756717 69.6888641 94.0206065 47.9347864 75.0219978 36.9852524 84.1155196 18.1984951 72.7779978 12.0303204 61.7243022 40.2691165 78.5354543 49.9591165"></polygon>
                            <polyline id="Stroke-49" stroke="#35444C" stroke-width="1.98" points="84.1150761 18.1984951 91.7140761 13.8177961 80.3144674 7.24896117 72.7154674 11.6285534"></polyline>
                            <polyline id="Stroke-51" stroke="#35444C" stroke-width="1.98" points="92.5288565 13.4145903 82.6215522 32.6042214 101.620161 43.5548621 94.0211609 47.9344544"></polyline>
                            <path d="M75.0225522,36.9848097 L82.6215522,32.6041107" id="Stroke-53" stroke="#35444C" stroke-width="1.98"></path>
                            <path d="M38.9097848,41.1396117 C40.063937,44.2231456 40.4885674,47.6331845 40.0007413,51.1273398 C38.4452413,62.2794175 28.1931326,70.0679417 17.10285,68.5261748 C11.7888717,67.786835 7.24987174,65.0353398 4.13111087,61.147165 C6.65893696,67.8997282 12.0471978,71.5853592 19.6628283,72.6445631 C30.7520022,74.1863301 40.6626326,66.9644854 42.2181326,55.8135146 C43.0285891,50.0072621 42.2990674,45.3653592 38.9097848,41.1396117" id="Fill-55" fill="#CBCFD2"></path>
                            <path d="M15.3759457,47.0940641 C12.5775978,44.3292874 9.81583696,43.6220447 8.48540217,37.9873456 C5.17261957,44.4598893 1.85651087,53.5466854 4.33333696,60.280433 C10.3313804,76.5813262 34.1927283,78.069967 41.3404891,61.1193845 C45.27525,49.8588408 38.90025,40.1422777 33.789163,32.2973068 C32.9454457,40.9745883 28.9607935,41.5058505 24.886337,45.5235204" id="Stroke-57" stroke="#35444C" stroke-width="1.98"></path>
                            <g id="Group-62" transform="translate(11.086957, 18.815534)">
                                <path d="M5.27428696,34.8193631 C0.585613043,31.1127029 0.635504348,26.177499 1.1078087,22.8327612 C2.24422174,14.7597903 7.74002609,6.84841165 12.4309174,0.241945631 C15.6450261,13.7315767 24.2119174,22.0945282 22.4823522,29.4978874" id="Fill-59" fill="#FFFFFF"></path>
                                <path d="M5.27428696,34.8193631 C0.585613043,31.1127029 0.635504348,26.177499 1.1078087,22.8327612 C2.24422174,14.7597903 7.74002609,6.84841165 12.4309174,0.241945631 C15.6450261,13.7315767 24.2119174,22.0945282 22.4823522,29.4978874" id="Stroke-61" stroke="#35444C" stroke-width="1.98"></path>
                            </g>
                            <path d="M29.5822174,51.3348641 C29.6642609,52.5711553 29.4735652,53.4355631 29.1232174,54.1284175 C27.5655,52.2512913 25.1784783,50.1406311 23.6152174,47.0991553 C21.8268913,50.1118544 19.7447609,53.707835 19.7902174,56.9684563 C19.7946522,57.279466 19.8201522,57.6236796 19.8822391,57.9789612 C19.0717826,57.5982233 18.3367174,57.0879903 17.7180652,55.8771553 C16.589413,58.7105534 15.6525652,62.5666311 17.3533043,64.9728058 C21.471,70.796767 33.164413,69.1941262 35.379587,61.9125146 C36.4572391,57.1488641 32.6444348,53.9336214 29.5822174,51.3348641" id="Fill-63" fill="#CBCFD2"></path>
                            <g id="Group-68" transform="translate(0.000000, 21.029126)" stroke="#35444C" stroke-width="1.98">
                                <path d="M5.94449348,0.267623301 C2.96099348,3.0600699 0.570645652,8.23212816 1.06290652,11.6355262" id="Stroke-67"></path>
                            </g>
                            <g id="Group-72" transform="translate(42.130435, 19.922330)" stroke="#35444C" stroke-width="1.98">
                                <path d="M0.880636957,13.2108291 C2.88959348,9.65358641 3.61911522,4.00560583 2.12902826,0.905469903" id="Stroke-71"></path>
                            </g>
                            <g id="Group-76" transform="translate(24.391304, 0.000000)" stroke="#35444C" stroke-width="1.98">
                                <path d="M0.983523913,12.5072388 C3.05456739,8.98541359 3.88165435,3.35071456 2.44589348,0.22512233" id="Stroke-75"></path>
                            </g>
                            <g id="Group-80" transform="translate(27.717391, 61.873786)">
                                <polyline id="Fill-77" fill="#FFFFFF" points="9.89422174 17.9064019 0.152113043 0.029431068 17.1850043 10.8372951"></polyline>
                                <polyline id="Stroke-79" stroke="#35444C" stroke-width="1.98" points="9.89422174 17.9064019 0.152113043 0.029431068 17.1850043 10.8372951"></polyline>
                            </g>
                        </g>
                    </g>
                </g>
            </g>
        </g>
    </g>
</svg>