<svg width="31" height="24" xmlns="http://www.w3.org/2000/svg"><g fill="none" fill-rule="evenodd"><path d="M-6-10h44v44H-6z"/><path d="M-6-10h44v44H-6z"/><path d="M24.138 19.842c-1.869 0-3.389-2.09-3.389-4.656 0-2.567 1.52-4.656 3.389-4.656 1.868 0 3.388 2.09 3.388 4.656s-1.52 4.656-3.388 4.656zm3.677-12.22v1.847c-.992-1.136-2.267-1.848-3.677-1.848-3.134 0-5.675 3.388-5.675 7.565 0 4.178 2.541 7.565 5.675 7.565 1.41 0 2.685-.71 3.677-1.848v1.848h2.286V7.621h-2.286zM8.993 4.545l3.14 9.03h-6.28l3.14-9.03zM2.498 23.217l2.342-6.733h8.306l2.342 6.733h2.497L10.037.364H7.948L.001 23.217h2.497z" fill="#35444C"/></g></svg>