<svg width="31" height="18" xmlns="http://www.w3.org/2000/svg"><g fill="none" fill-rule="evenodd"><path d="M-6-13h44v44H-6z"/><path d="M2.91 8.95a5.775 5.775 0 0 1 5.766-5.768h4.97V.272h-4.97C3.892.272 0 4.165 0 8.95c0 4.786 3.892 8.678 8.676 8.678h4.97V14.72h-4.97A5.775 5.775 0 0 1 2.91 8.95M22.339.273H17.37v2.909h4.969a5.775 5.775 0 0 1 5.768 5.769 5.776 5.776 0 0 1-5.768 5.768H17.37v2.91h4.969c4.785 0 8.678-3.893 8.678-8.678 0-4.786-3.893-8.678-8.678-8.678" fill="#35444C"/><path fill="#35444C" d="M8.407 10.405H22.61v-2.91H8.407z"/></g></svg>