<?xml version="1.0" encoding="UTF-8"?>
<svg width="31px" height="18px" viewBox="0 0 31 18" version="1.1" xmlns="http://www.w3.org/2000/svg" xmlns:xlink="http://www.w3.org/1999/xlink">
    <!-- Generator: Sketch 58 (84663) - https://sketch.com -->
    <title>i--link</title>
    <desc>Created with Sketch.</desc>
    <defs>
        <polygon id="path-1" points="0 0.0992 13.6450909 0.0992 13.6450909 17.4545455 0 17.4545455"></polygon>
        <polygon id="path-3" points="1.37003636 0.0994909091 15.0165818 0.0994909091 15.0165818 17.4545455 1.37003636 17.4545455"></polygon>
        <polygon id="path-5" points="0 18.8096 31.0167273 18.8096 31.0167273 1.45396364 0 1.45396364"></polygon>
    </defs>
    <g id="Markenportal" stroke="none" stroke-width="1" fill="none" fill-rule="evenodd">
        <g id="Artboard-Copy-6" transform="translate(-1118.000000, -9048.000000)">
            <g id="i--link" transform="translate(1112.000000, 9035.000000)">
                <rect id="Rectangle" x="0" y="0" width="44" height="44"></rect>
                <g id="1-Atoms-/-1.5-Icons-/-20-Mailbox_Link" transform="translate(6.000000, 6.000000)">
                    <g id="Group-9" transform="translate(0.000000, 5.818182)">
                        <g id="Group-3" transform="translate(0.000000, 1.355055)">
                            <mask id="mask-2" fill="white">
                                <use xlink:href="#path-1"></use>
                            </mask>
                            <g id="Clip-2"></g>
                            <path d="M2.90909091,8.77701818 C2.90909091,5.59592727 5.49672727,3.00829091 8.67636364,3.00829091 L13.6450909,3.00829091 L13.6450909,0.0992 L8.67636364,0.0992 C3.89236364,0.0992 0,3.99156364 0,8.77701818 C0,13.5624727 3.89236364,17.4548364 8.67636364,17.4548364 L13.6450909,17.4548364 L13.6450909,14.5457455 L8.67636364,14.5457455 C5.49672727,14.5457455 2.90909091,11.9581091 2.90909091,8.77701818" id="Fill-1" fill="#35444C" mask="url(#mask-2)"></path>
                        </g>
                        <g id="Group-6" transform="translate(16.000000, 1.355055)">
                            <mask id="mask-4" fill="white">
                                <use xlink:href="#path-3"></use>
                            </mask>
                            <g id="Clip-5"></g>
                            <path d="M6.33876364,0.0994909091 L1.37003636,0.0994909091 L1.37003636,3.00858182 L6.33876364,3.00858182 C9.51985455,3.00858182 12.1074909,5.59621818 12.1074909,8.77730909 C12.1074909,11.9569455 9.51985455,14.5460364 6.33876364,14.5460364 L1.37003636,14.5460364 L1.37003636,17.4551273 L6.33876364,17.4551273 C11.1242182,17.4551273 15.0165818,13.5627636 15.0165818,8.77730909 C15.0165818,3.99185455 11.1242182,0.0994909091 6.33876364,0.0994909091" id="Fill-4" fill="#35444C" mask="url(#mask-4)"></path>
                        </g>
                        <mask id="mask-6" fill="white">
                            <use xlink:href="#path-5"></use>
                        </mask>
                        <g id="Clip-8"></g>
                        <polygon id="Fill-7" fill="#35444C" mask="url(#mask-6)" points="8.40727273 11.5863273 22.6094545 11.5863273 22.6094545 8.67723636 8.40727273 8.67723636"></polygon>
                    </g>
                </g>
            </g>
        </g>
    </g>
</svg>