<svg id="logo--claim" viewBox="0 0 347 87">

  <path id="letter--h" class="letter" fill="#35444C" d="M40.95 23.062H20.56V.532H.14v61.18h20.42v-22.38h20.39v22.38h20.43V.532H40.95z"/>
  <path id="letter--u" class="letter" d="M107.06 35.002a11 11 0 0 1-2.06 7.16c-1.42 1.75-3.59 2.63-6.54 2.63s-5.07-.88-6.39-2.63a11.54 11.54 0 0 1-2.07-7.16V.532H69.71v34.47c0 6.26 1.197 11.567 3.59 15.92a23.5 23.5 0 0 0 10 9.84 31.4 31.4 0 0 0 14.7 3.35 33.45 33.45 0 0 0 15-3.32 24.67 24.67 0 0 0 10.58-9.89c2.58-4.38 3.867-9.67 3.86-15.87V.532h-20.38v34.47z" fill="#35444C"/>
  <path id="letter--k" class="letter" fill="#35444C" d="M200.48 61.712l-23.09-30.32L199.6.532h-24.44l-19.01 28.73V.532h-20.43v61.18h20.43v-28.32l20.04 28.32h24.29z"/>

  <path id="letter--klammer--links" class="letter" fill="#35444C" d="M176.45.532h24.29l-23.09 30.32 22.22 30.86h-24.44L155 30.852z"/>
  <path id="letter--2" class="letter" d="M241.6 33.812a25.24 25.24 0 0 0 5.4-15.4 18.38 18.38 0 0 0-5-13.08c-3.333-3.553-8.63-5.33-15.89-5.33a26.43 26.43 0 0 0-11.35 2.41 19.5 19.5 0 0 0-8.39 7.59c-2.153 3.44-3.317 7.827-3.49 13.16h18.5c0-2.747.243-4.623.73-5.63a2.52 2.52 0 0 1 2.45-1.53c2 0 3 1.44 3 4.3 0 3.5-2.197 7.46-6.59 11.88a170.24 170.24 0 0 1-17.85 15.14v14.37h44.48v-15.4h-19.7a51.07 51.07 0 0 0 13.7-12.48z" fill="#F49B08"/>
  <path id="letter--4" class="letter" d="M296.9.692v35.42h6.1v16.28h-6.09v9.32h-19v-9.32h-26.52v-15.7l25.25-36h20.26zm-17.46 21.42l-9.15 14h9.15v-14z" fill="#F49B08"/>
  <path id="letter--klammer--rechts" class="letter" fill="#35444C" d="M325.38.532h-24.29l23.09 30.32-22.22 30.86h24.44l20.43-30.86z"/>

  <path id="claim" fill="#35444C"
    d="M6.11 71.842c4.69 0 7.63 3.07 7.63 7.3 0 4.18-2.94 7.37-7.63 7.37H0v-14.67h6.11zm-.37 4.02H4.6v6.55h1.14a3.28 3.28 0 1 0 0-6.55zM15 71.842h4.6v14.67H15zM35.08 76.862h-4.85a2.18 2.18 0 0 0-2-.91c-1.78 0-2.77 1.26-2.77 3.21 0 2.28 1 3.42 3.29 3.42a3 3 0 0 0 2.57-1.29h-3.64v-3.29h7.49v4.6a7.65 7.65 0 0 1-6.88 4c-4.63 0-7.46-3.09-7.46-7.46s2.81-7.46 7.41-7.46c3.9.02 6.41 2.05 6.84 5.18zM37.65 71.842h4.6v14.67h-4.6zM43.91 71.842h12.35v3.65h-3.89v11h-4.61v-11h-3.85zM65.9 71.842l5.34 14.67h-4.85l-.72-2.21h-4.89l-.73 2.21h-4.82l5.36-14.67h5.31zm-2.68 4.91l-1.32 4.09h2.65l-1.33-4.09zM77.71 71.842v11.16h4.43v3.48h-9v-14.64zM86.7 86.682a2.3 2.3 0 1 1 2.63-2.26 2.37 2.37 0 0 1-2.63 2.26zM104.75 75.512h-5.18v1.8h4.56v3.46h-4.56v2.08h5.18v3.66H95v-14.67h9.78zM107.32 71.842h4.6v14.67h-4.6zM128.89 71.842v14.67h-4.6l-4.87-7.37v7.37h-4.6v-14.67h4.6l4.87 7.5v-7.5zM131.79 71.842h10.36v3.65h-5.76v2h4.15v3.51h-4.15v5.53h-4.6zM151.67 71.842l5.33 14.67h-4.85l-.69-2.21h-4.89l-.73 2.21H141l5.36-14.67h5.31zm-2.67 4.91l-1.32 4.09h2.65l-1.33-4.09zM163.66 71.702a6.77 6.77 0 0 1 7.11 5.78h-4.85a2.49 2.49 0 0 0-2.34-1.48c-1.55 0-2.51 1.26-2.51 3.21s1 3.21 2.51 3.21a2.49 2.49 0 0 0 2.34-1.53h4.85a6.77 6.77 0 0 1-7.11 5.78c-4.49 0-7.25-3.09-7.25-7.46s2.76-7.51 7.25-7.51zM181.4 80.802H177v5.71h-4.6v-14.67h4.6v5.29h4.37v-5.29H186v14.67h-4.6zM191.18 86.682a2.3 2.3 0 1 1 2.64-2.26 2.37 2.37 0 0 1-2.64 2.26zM211.64 76.862h-4.85a2.19 2.19 0 0 0-2-.91c-1.79.05-2.79 1.26-2.79 3.21 0 2.28 1 3.42 3.3 3.42a3 3 0 0 0 2.57-1.29h-3.67v-3.29h7.48v4.6a7.65 7.65 0 0 1-6.88 4c-4.62 0-7.46-3.09-7.46-7.46s2.82-7.46 7.42-7.46c3.93.02 6.44 2.05 6.88 5.18zM213.71 71.842h4.58v8.27c0 1.27.5 2.2 1.88 2.2s2-.93 2-2.2v-8.27h4.58v8.27c0 4.33-3 6.55-6.63 6.55s-6.36-2.22-6.36-6.55l-.05-8.27zM216.09 68.842a1.79 1.79 0 1 1 1.76 1.76 1.74 1.74 0 0 1-1.76-1.74v-.02zM220.75 68.842a1.79 1.79 0 1 1 1.77 1.76 1.74 1.74 0 0 1-1.77-1.74v-.02zM243.18 71.842v14.67h-4.6l-4.87-7.37v7.37h-4.6v-14.67h4.6l4.87 7.5v-7.5zM251.4 86.662c-3.35 0-6-1.55-6.19-4.85h4.89c.08 1.08.66 1.26 1.12 1.26.46 0 .89-.2.89-.72 0-2-6.94-1.27-6.86-6.28 0-2.94 2.49-4.48 5.61-4.48 3.55 0 5.83 1.7 5.95 4.75h-4.95c0-.89-.52-1.16-1-1.16a.66.66 0 0 0-.66.75c0 1.84 6.82 1.53 6.82 6-.02 2.74-2.02 4.73-5.62 4.73zM257.79 71.842h12.35v3.65h-3.9v11h-4.6v-11h-3.85zM272.21 71.842h4.6v14.67h-4.6zM292.31 76.862h-4.85a2.19 2.19 0 0 0-2-.91c-1.78 0-2.78 1.26-2.78 3.21 0 2.28 1 3.42 3.3 3.42a3 3 0 0 0 2.57-1.29h-3.67v-3.29h7.48v4.6a7.64 7.64 0 0 1-6.88 4c-4.62 0-7.46-3.09-7.46-7.46s2.82-7.46 7.42-7.46c3.93.02 6.43 2.05 6.87 5.18zM304.24 75.512h-5.18v1.8h4.56v3.46h-4.56v2.08h5.18v3.66h-9.78v-14.67h9.78zM313.65 71.842c3.69 0 5.58 2.12 5.58 4.81a4.32 4.32 0 0 1-3.17 4.25l3.19 5.61h-5.06l-2.75-5.26v5.26h-4.61v-14.67h6.82zm-.41 3.86h-1.82v2.48h1.82c.87 0 1.32-.37 1.32-1.24a1.17 1.17 0 0 0-1.32-1.24zM323.81 86.682a2.3 2.3 0 1 1 2.63-2.26 2.37 2.37 0 0 1-2.63 2.26z" />

</svg>
