<svg id="logo--claim" viewBox="0 0 347 87">
  <polygon id="letter--h" class="letter" fill="#35444C"
    points="40.95 23.0619286 20.56 23.0619286 20.56 0.531928606 0.14 0.531928606 0.14 61.7119286 20.56 61.7119286 20.56 39.3319286 40.95 39.3319286 40.95 61.7119286 61.38 61.7119286 61.38 0.531928606 40.95 0.531928606"></polygon>
  <path
    d="M241.6,33.8119286 C245.055642,29.4181851 246.954965,24.0015992 247,18.4119286 C247.124558,13.5629738 245.327306,8.86136371 242,5.33192861 C238.666667,1.77859527 233.37,0.00192860596 226.11,0.00192860596 C222.194859,-0.0453682229 218.318116,0.777799198 214.76,2.41192861 C211.274718,4.05720839 208.355145,6.6983947 206.37,10.0019286 C204.216667,13.4419286 203.053333,17.8285953 202.88,23.1619286 L221.38,23.1619286 C221.38,20.4152619 221.623333,18.5385953 222.11,17.5319286 C222.524351,16.5580484 223.503073,15.9468463 224.56,16.0019286 C226.56,16.0019286 227.56,17.4419286 227.56,20.3019286 C227.56,23.8019286 225.363333,27.7619286 220.97,32.1819286 C215.374386,37.6321312 209.410294,42.6907508 203.12,47.3219286 L203.12,61.6919286 L247.6,61.6919286 L247.6,46.2919286 L227.9,46.2919286 C233.189552,43.0022444 237.83265,38.77262 241.6,33.8119286 L241.6,33.8119286 Z"
    id="letter--2" class="letter" fill="#F49B08"></path>
  <path d="M107.06,35.0019286 C107.227107,37.5555584 106.498629,40.0875468 105,42.1619286 C103.58,43.9119286 101.41,44.7919286 98.46,44.7919286 C95.51,44.7919286 93.39,43.9119286 92.07,42.1619286 C90.6070521,40.0699121 89.8790663,37.551855
    90,35.0019286 L90,0.531928606 L69.71,0.531928606 L69.71,35.0019286 C69.71,41.2619286 70.9066667,46.5685953 73.3,50.9219286 C75.5536619,55.1436237 79.042507,58.5766472 83.3,60.7619286 C87.8552177,63.0558627 92.9006516,64.2056725 98,64.1119286
    C103.189862,64.1840083 108.325295,63.0473657 113,60.7919286 C117.436701,58.627996 121.122215,55.1828418 123.58,50.9019286 C126.16,46.5219286 127.446667,41.2319286 127.440026,35.0319286 L127.440026,0.531928606 L107.06,0.531928606
    L107.06,35.0019286 Z" id="letter--u" class="letter" fill="#35444C">
    </path>
    <polygon id="letter--k" class="letter" fill="#35444C"
      points="200.48 61.7119286 177.39 31.3919286 199.6 0.531928606 175.16 0.531928606 156.15 29.2619286 156.15 0.531928606 135.72 0.531928606 135.72 61.7119286 156.15 61.7119286 156.15 33.3919286 176.19 61.7119286 200.48 61.7119286"></polygon>
    <path
      d="M296.9,0.691928606 L296.9,36.1119286 L303,36.1119286 L303,52.3919286 L296.91,52.3919286 L296.91,61.7119286 L277.91,61.7119286 L277.91,52.3919286 L251.39,52.3919286 L251.39,36.6919286 L276.64,0.691928606 L296.9,0.691928606 Z M279.44,22.1119286 L270.29,36.1119286 L279.44,36.1119286 L279.44,22.1119286 Z"
      id="letter--4" class="letter" fill="#F49B08"></path>
    <polygon id="letter--klammer" class="letter" fill="#35444C" points="325.38 0.531928606 301.09 0.531928606 324.18 30.8519286 301.96 61.7119286 326.4 61.7119286 346.83 30.8519286"></polygon>

    <path id="claim" fill="#35444C"
      d="M6.11 71.842c4.69 0 7.63 3.07 7.63 7.3 0 4.18-2.94 7.37-7.63 7.37H0v-14.67h6.11zm-.37 4.02H4.6v6.55h1.14a3.28 3.28 0 1 0 0-6.55zM15 71.842h4.6v14.67H15zM35.08 76.862h-4.85a2.18 2.18 0 0 0-2-.91c-1.78 0-2.77 1.26-2.77 3.21 0 2.28 1 3.42 3.29 3.42a3 3 0 0 0 2.57-1.29h-3.64v-3.29h7.49v4.6a7.65 7.65 0 0 1-6.88 4c-4.63 0-7.46-3.09-7.46-7.46s2.81-7.46 7.41-7.46c3.9.02 6.41 2.05 6.84 5.18zM37.65 71.842h4.6v14.67h-4.6zM43.91 71.842h12.35v3.65h-3.89v11h-4.61v-11h-3.85zM65.9 71.842l5.34 14.67h-4.85l-.72-2.21h-4.89l-.73 2.21h-4.82l5.36-14.67h5.31zm-2.68 4.91l-1.32 4.09h2.65l-1.33-4.09zM77.71 71.842v11.16h4.43v3.48h-9v-14.64zM86.7 86.682a2.3 2.3 0 1 1 2.63-2.26 2.37 2.37 0 0 1-2.63 2.26zM104.75 75.512h-5.18v1.8h4.56v3.46h-4.56v2.08h5.18v3.66H95v-14.67h9.78zM107.32 71.842h4.6v14.67h-4.6zM128.89 71.842v14.67h-4.6l-4.87-7.37v7.37h-4.6v-14.67h4.6l4.87 7.5v-7.5zM131.79 71.842h10.36v3.65h-5.76v2h4.15v3.51h-4.15v5.53h-4.6zM151.67 71.842l5.33 14.67h-4.85l-.69-2.21h-4.89l-.73 2.21H141l5.36-14.67h5.31zm-2.67 4.91l-1.32 4.09h2.65l-1.33-4.09zM163.66 71.702a6.77 6.77 0 0 1 7.11 5.78h-4.85a2.49 2.49 0 0 0-2.34-1.48c-1.55 0-2.51 1.26-2.51 3.21s1 3.21 2.51 3.21a2.49 2.49 0 0 0 2.34-1.53h4.85a6.77 6.77 0 0 1-7.11 5.78c-4.49 0-7.25-3.09-7.25-7.46s2.76-7.51 7.25-7.51zM181.4 80.802H177v5.71h-4.6v-14.67h4.6v5.29h4.37v-5.29H186v14.67h-4.6zM191.18 86.682a2.3 2.3 0 1 1 2.64-2.26 2.37 2.37 0 0 1-2.64 2.26zM211.64 76.862h-4.85a2.19 2.19 0 0 0-2-.91c-1.79.05-2.79 1.26-2.79 3.21 0 2.28 1 3.42 3.3 3.42a3 3 0 0 0 2.57-1.29h-3.67v-3.29h7.48v4.6a7.65 7.65 0 0 1-6.88 4c-4.62 0-7.46-3.09-7.46-7.46s2.82-7.46 7.42-7.46c3.93.02 6.44 2.05 6.88 5.18zM213.71 71.842h4.58v8.27c0 1.27.5 2.2 1.88 2.2s2-.93 2-2.2v-8.27h4.58v8.27c0 4.33-3 6.55-6.63 6.55s-6.36-2.22-6.36-6.55l-.05-8.27zM216.09 68.842a1.79 1.79 0 1 1 1.76 1.76 1.74 1.74 0 0 1-1.76-1.74v-.02zM220.75 68.842a1.79 1.79 0 1 1 1.77 1.76 1.74 1.74 0 0 1-1.77-1.74v-.02zM243.18 71.842v14.67h-4.6l-4.87-7.37v7.37h-4.6v-14.67h4.6l4.87 7.5v-7.5zM251.4 86.662c-3.35 0-6-1.55-6.19-4.85h4.89c.08 1.08.66 1.26 1.12 1.26.46 0 .89-.2.89-.72 0-2-6.94-1.27-6.86-6.28 0-2.94 2.49-4.48 5.61-4.48 3.55 0 5.83 1.7 5.95 4.75h-4.95c0-.89-.52-1.16-1-1.16a.66.66 0 0 0-.66.75c0 1.84 6.82 1.53 6.82 6-.02 2.74-2.02 4.73-5.62 4.73zM257.79 71.842h12.35v3.65h-3.9v11h-4.6v-11h-3.85zM272.21 71.842h4.6v14.67h-4.6zM292.31 76.862h-4.85a2.19 2.19 0 0 0-2-.91c-1.78 0-2.78 1.26-2.78 3.21 0 2.28 1 3.42 3.3 3.42a3 3 0 0 0 2.57-1.29h-3.67v-3.29h7.48v4.6a7.64 7.64 0 0 1-6.88 4c-4.62 0-7.46-3.09-7.46-7.46s2.82-7.46 7.42-7.46c3.93.02 6.43 2.05 6.87 5.18zM304.24 75.512h-5.18v1.8h4.56v3.46h-4.56v2.08h5.18v3.66h-9.78v-14.67h9.78zM313.65 71.842c3.69 0 5.58 2.12 5.58 4.81a4.32 4.32 0 0 1-3.17 4.25l3.19 5.61h-5.06l-2.75-5.26v5.26h-4.61v-14.67h6.82zm-.41 3.86h-1.82v2.48h1.82c.87 0 1.32-.37 1.32-1.24a1.17 1.17 0 0 0-1.32-1.24zM323.81 86.682a2.3 2.3 0 1 1 2.63-2.26 2.37 2.37 0 0 1-2.63 2.26z" />
</svg>
