<?xml version="1.0" encoding="UTF-8"?>
<svg width="431px" height="165px" viewBox="0 0 431 165" version="1.1" xmlns="http://www.w3.org/2000/svg" xmlns:xlink="http://www.w3.org/1999/xlink">
    <!-- Generator: Sketch 57.1 (83088) - https://sketch.com -->
    <title>logo--with-grid</title>
    <desc>Created with Sketch.</desc>
    <g id="Page-1" stroke="none" stroke-width="1" fill="none" fill-rule="evenodd">
        <g id="logo--with-grid" transform="translate(1.300000, 0.133381)" fill-rule="nonzero">
            <g id="logo--claim" transform="translate(40.700000, 40.864690)">
                <g id="claim" transform="translate(0.000000, 67.021986)" fill="#35444C">
                    <path d="M6.11,4.8199422 C10.8,4.8199422 13.74,7.8899422 13.74,12.1199422 C13.74,16.2999422 10.8,19.4899422 6.11,19.4899422 L0,19.4899422 L0,4.8199422 L6.11,4.8199422 Z M5.74,8.8399422 L4.6,8.8399422 L4.6,15.3899422 L5.74,15.3899422 C6.95322794,15.4570082 8.1041278,14.8478787 8.73093401,13.8069493 C9.35774022,12.76602 9.35774022,11.4638644 8.73093401,10.4229351 C8.1041278,9.38200574 6.95322794,8.7728762 5.74,8.8399422 Z" id="Combined-Shape"></path>
                    <polygon id="Path" points="15 4.8199422 19.6 4.8199422 19.6 19.4899422 15 19.4899422"></polygon>
                    <path d="M35.08,9.8399422 L30.23,9.8399422 C29.7761283,9.19824425 29.0119673,8.85055101 28.23,8.9299422 C26.45,8.9299422 25.46,10.1899422 25.46,12.1399422 C25.46,14.4199422 26.46,15.5599422 28.75,15.5599422 C29.7703652,15.5952749 30.7386548,15.1092462 31.32,14.2699422 L27.68,14.2699422 L27.68,10.9799422 L35.17,10.9799422 L35.17,15.5799422 C33.8052809,18.0950977 31.1509541,19.6383109 28.29,19.5799422 C23.66,19.5799422 20.83,16.4899422 20.83,12.1199422 C20.83,7.7499422 23.64,4.6599422 28.24,4.6599422 C32.14,4.6799422 34.65,6.7099422 35.08,9.8399422 L35.08,9.8399422 Z" id="Path"></path>
                    <polygon id="Path" points="37.65 4.8199422 42.25 4.8199422 42.25 19.4899422 37.65 19.4899422"></polygon>
                    <polygon id="Path" points="43.91 4.8199422 56.26 4.8199422 56.26 8.4699422 52.37 8.4699422 52.37 19.4699422 47.76 19.4699422 47.76 8.4699422 43.91 8.4699422"></polygon>
                    <path d="M65.9,4.8199422 L71.24,19.4899422 L66.39,19.4899422 L65.67,17.2799422 L60.78,17.2799422 L60.05,19.4899422 L55.23,19.4899422 L60.59,4.8199422 L65.9,4.8199422 Z M63.22,9.7299422 L61.9,13.8199422 L64.55,13.8199422 L63.22,9.7299422 Z" id="Combined-Shape"></path>
                    <polygon id="Path" points="77.71 4.8199422 77.71 15.9799422 82.14 15.9799422 82.14 19.4599422 73.14 19.4599422 73.14 4.8199422"></polygon>
                    <path d="M86.7,19.6599422 C85.4832845,19.4835138 84.6204538,18.3814128 84.7411711,17.1579134 C84.8618883,15.9344139 85.9234638,15.0221855 87.1511977,15.0869399 C88.3789315,15.1516944 89.3386567,16.1705324 89.33,17.3999422 C89.3035091,18.0569493 89.0052564,18.6734208 88.5065499,19.1019671 C88.0078434,19.5305134 87.353513,19.7326113 86.7,19.6599422 Z" id="Path"></path>
                    <polygon id="Path" points="104.75 8.4899422 99.57 8.4899422 99.57 10.2899422 104.13 10.2899422 104.13 13.7499422 99.57 13.7499422 99.57 15.8299422 104.75 15.8299422 104.75 19.4899422 95 19.4899422 95 4.8199422 104.78 4.8199422"></polygon>
                    <polygon id="Path" points="107.32 4.8199422 111.92 4.8199422 111.92 19.4899422 107.32 19.4899422"></polygon>
                    <polygon id="Path" points="128.89 4.8199422 128.89 19.4899422 124.29 19.4899422 119.42 12.1199422 119.42 19.4899422 114.82 19.4899422 114.82 4.8199422 119.42 4.8199422 124.29 12.3199422 124.29 4.8199422"></polygon>
                    <polygon id="Path" points="131.79 4.8199422 142.15 4.8199422 142.15 8.4699422 136.39 8.4699422 136.39 10.4699422 140.54 10.4699422 140.54 13.9799422 136.39 13.9799422 136.39 19.5099422 131.79 19.5099422"></polygon>
                    <path d="M151.67,4.8199422 L157,19.4899422 L152.15,19.4899422 L151.46,17.2799422 L146.57,17.2799422 L145.84,19.4899422 L141,19.4899422 L146.36,4.8199422 L151.67,4.8199422 Z M149,9.7299422 L147.68,13.8199422 L150.33,13.8199422 L149,9.7299422 Z" id="Combined-Shape"></path>
                    <path d="M163.66,4.6799422 C167.171869,4.46637575 170.261987,6.97845434 170.77,10.4599422 L165.92,10.4599422 C165.511465,9.53844926 164.587663,8.95416452 163.58,8.9799422 C162.03,8.9799422 161.07,10.2399422 161.07,12.1899422 C161.07,14.1399422 162.07,15.3999422 163.58,15.3999422 C164.59973,15.4172887 165.526942,14.8110345 165.92,13.8699422 L170.77,13.8699422 C170.261987,17.3514301 167.171869,19.8635087 163.66,19.6499422 C159.17,19.6499422 156.41,16.5599422 156.41,12.1899422 C156.41,7.8199422 159.17,4.6799422 163.66,4.6799422 L163.66,4.6799422 Z" id="Path"></path>
                    <polygon id="Path" points="181.4 13.7799422 177 13.7799422 177 19.4899422 172.4 19.4899422 172.4 4.8199422 177 4.8199422 177 10.1099422 181.37 10.1099422 181.37 4.8199422 186 4.8199422 186 19.4899422 181.4 19.4899422"></polygon>
                    <path d="M191.18,19.6599422 C189.965546,19.4783942 189.107896,18.374857 189.231782,17.1531738 C189.355669,15.9314907 190.417393,15.0225903 191.64357,15.0885378 C192.869746,15.1544853 193.827861,16.1720188 193.82,17.3999422 C193.793745,18.0588989 193.494113,18.677118 192.993131,19.105989 C192.492149,19.5348599 191.835126,19.7355956 191.18,19.6599422 L191.18,19.6599422 Z" id="Path"></path>
                    <path d="M211.64,9.8399422 L206.79,9.8399422 C206.334749,9.19991453 205.571614,8.85268856 204.79,8.9299422 C203,8.9799422 202,10.1899422 202,12.1399422 C202,14.4199422 203,15.5599422 205.3,15.5599422 C206.320365,15.5952749 207.288655,15.1092462 207.87,14.2699422 L204.2,14.2699422 L204.2,10.9799422 L211.68,10.9799422 L211.68,15.5799422 C210.315281,18.0950977 207.660954,19.6383109 204.8,19.5799422 C200.18,19.5799422 197.34,16.4899422 197.34,12.1199422 C197.34,7.7499422 200.16,4.6599422 204.76,4.6599422 C208.69,4.6799422 211.2,6.7099422 211.64,9.8399422 L211.64,9.8399422 Z" id="Path"></path>
                    <path d="M213.71,4.8199422 L218.29,4.8199422 L218.29,13.0899422 C218.29,14.3599422 218.79,15.2899422 220.17,15.2899422 C221.55,15.2899422 222.17,14.3599422 222.17,13.0899422 L222.17,4.8199422 L226.75,4.8199422 L226.75,13.0899422 C226.75,17.4199422 223.75,19.6399422 220.12,19.6399422 C216.49,19.6399422 213.76,17.4199422 213.76,13.0899422 L213.71,4.8199422 Z" id="Path"></path>
                    <path d="M216.09,1.8199422 C216.077876,1.09063679 216.509488,0.426918108 217.181029,0.142195374 C217.852569,-0.142527359 218.629706,0.00870029452 219.145474,0.524468351 C219.661242,1.04023641 219.81247,1.81737334 219.527747,2.48891361 C219.243024,3.16045389 218.579305,3.59206612 217.85,3.5799422 C217.385068,3.5852866 216.937337,3.40432776 216.606685,3.07743341 C216.276033,2.75053905 216.089969,2.30490511 216.09,1.8399422 L216.09,1.8199422 Z" id="Path"></path>
                    <path d="M220.75,1.8199422 C220.737835,1.09153637 221.168331,0.428423022 221.838629,0.143075488 C222.508927,-0.142272045 223.285291,0.00707833694 223.801881,0.520749509 C224.318471,1.03442068 224.472217,1.80992576 224.190672,2.48183001 C223.909127,3.15373426 223.248463,3.58798037 222.52,3.5799422 C222.053348,3.58798914 221.603025,3.40822682 221.270195,3.08103727 C220.937364,2.75384772 220.749931,2.30666407 220.75,1.8399422 L220.75,1.8199422 Z" id="Path"></path>
                    <polygon id="Path" points="243.18 4.8199422 243.18 19.4899422 238.58 19.4899422 233.71 12.1199422 233.71 19.4899422 229.11 19.4899422 229.11 4.8199422 233.71 4.8199422 238.58 12.3199422 238.58 4.8199422"></polygon>
                    <path d="M251.4,19.6399422 C248.05,19.6399422 245.4,18.0899422 245.21,14.7899422 L250.1,14.7899422 C250.18,15.8699422 250.76,16.0499422 251.22,16.0499422 C251.68,16.0499422 252.11,15.8499422 252.11,15.3299422 C252.11,13.3299422 245.17,14.0599422 245.25,9.0499422 C245.25,6.1099422 247.74,4.5699422 250.86,4.5699422 C254.41,4.5699422 256.69,6.2699422 256.81,9.3199422 L251.86,9.3199422 C251.86,8.4299422 251.34,8.1599422 250.86,8.1599422 C250.668186,8.15814921 250.485083,8.23989567 250.35836,8.38389896 C250.231637,8.52790225 250.173834,8.7199133 250.2,8.9099422 C250.2,10.7499422 257.02,10.4399422 257.02,14.9099422 C257,17.6499422 255,19.6399422 251.4,19.6399422 L251.4,19.6399422 Z" id="Path"></path>
                    <polygon id="Path" points="257.79 4.8199422 270.14 4.8199422 270.14 8.4699422 266.24 8.4699422 266.24 19.4699422 261.64 19.4699422 261.64 8.4699422 257.79 8.4699422"></polygon>
                    <polygon id="Path" points="272.21 4.8199422 276.81 4.8199422 276.81 19.4899422 272.21 19.4899422"></polygon>
                    <path d="M292.31,9.8399422 L287.46,9.8399422 C287.004749,9.19991453 286.241614,8.85268856 285.46,8.9299422 C283.68,8.9299422 282.68,10.1899422 282.68,12.1399422 C282.68,14.4199422 283.68,15.5599422 285.98,15.5599422 C287.000365,15.5952749 287.968655,15.1092462 288.55,14.2699422 L284.88,14.2699422 L284.88,10.9799422 L292.36,10.9799422 L292.36,15.5799422 C290.996982,18.0967484 288.341547,19.6406057 285.48,19.5799422 C280.86,19.5799422 278.02,16.4899422 278.02,12.1199422 C278.02,7.7499422 280.84,4.6599422 285.44,4.6599422 C289.37,4.6799422 291.87,6.7099422 292.31,9.8399422 L292.31,9.8399422 Z" id="Path"></path>
                    <polygon id="Path" points="304.24 8.4899422 299.06 8.4899422 299.06 10.2899422 303.62 10.2899422 303.62 13.7499422 299.06 13.7499422 299.06 15.8299422 304.24 15.8299422 304.24 19.4899422 294.46 19.4899422 294.46 4.8199422 304.24 4.8199422"></polygon>
                    <path d="M313.65,4.8199422 C317.34,4.8199422 319.23,6.9399422 319.23,9.6299422 C319.269158,11.6047087 317.963992,13.3545369 316.06,13.8799422 L319.25,19.4899422 L314.19,19.4899422 L311.44,14.2299422 L311.44,19.4899422 L306.83,19.4899422 L306.83,4.8199422 L313.65,4.8199422 Z M313.24,8.6799422 L313.24,8.6799422 L311.42,8.6799422 L311.42,11.1599422 L313.24,11.1599422 C314.11,11.1599422 314.56,10.7899422 314.56,9.9199422 C314.583999,9.56983732 314.449581,9.22744808 314.193809,8.98717736 C313.938037,8.74690663 313.587923,8.63413007 313.24,8.6799422 Z" id="Combined-Shape"></path>
                    <path d="M323.81,19.6599422 C322.593285,19.4835138 321.730454,18.3814128 321.851171,17.1579134 C321.971888,15.9344139 323.033464,15.0221855 324.261198,15.0869399 C325.488931,15.1516944 326.448657,16.1705324 326.44,17.3999422 C326.413509,18.0569493 326.115256,18.6734208 325.61655,19.1019671 C325.117843,19.5305134 324.463513,19.7326113 323.81,19.6599422 L323.81,19.6599422 Z" id="Path"></path>
                </g>
                <polygon id="letter--klammer" fill="#35444C" points="325.38 0.531928606 301.09 0.531928606 324.18 30.8519286 301.96 61.7119286 326.4 61.7119286 346.83 30.8519286"></polygon>
                <path d="M296.9,0.691928606 L296.9,36.1119286 L303,36.1119286 L303,52.3919286 L296.91,52.3919286 L296.91,61.7119286 L277.91,61.7119286 L277.91,52.3919286 L251.39,52.3919286 L251.39,36.6919286 L276.64,0.691928606 L296.9,0.691928606 Z M279.44,22.1119286 L270.29,36.1119286 L279.44,36.1119286 L279.44,22.1119286 Z" id="letter--4" fill="#F49B08"></path>
                <path d="M242.72,33.8119286 C246.175642,29.4181851 248.074965,24.0015992 248.12,18.4119286 C248.244558,13.5629738 246.447306,8.86136371 243.12,5.33192861 C239.786667,1.77859527 234.49,0.00192860596 227.23,0.00192860596 C223.314859,-0.0453682229 219.438116,0.777799198 215.88,2.41192861 C212.394718,4.05720839 209.475145,6.6983947 207.49,10.0019286 C205.336667,13.4419286 204.173333,17.8285953 204,23.1619286 L222.5,23.1619286 C222.5,20.4152619 222.743333,18.5385953 223.23,17.5319286 C223.644351,16.5580484 224.623073,15.9468463 225.68,16.0019286 C227.68,16.0019286 228.68,17.4419286 228.68,20.3019286 C228.68,23.8019286 226.483333,27.7619286 222.09,32.1819286 C216.494386,37.6321312 210.530294,42.6907508 204.24,47.3219286 L204.24,61.6919286 L248.72,61.6919286 L248.72,46.2919286 L229.02,46.2919286 C234.309552,43.0022444 238.95265,38.77262 242.72,33.8119286 L242.72,33.8119286 Z" id="letter--2" fill="#F49B08"></path>
                <polygon id="letter--klammer--links" fill="#35444C" transform="translate(177.870000, 31.121929) scale(-1, 1) translate(-177.870000, -31.121929) " points="179.29 0.531928606 155 0.531928606 178.09 30.8519286 155.87 61.7119286 180.31 61.7119286 200.74 30.8519286"></polygon>
                <polygon id="letter--k" fill="#35444C" points="200.48 61.7119286 177.39 31.3919286 199.6 0.531928606 175.16 0.531928606 156.15 29.2619286 156.15 0.531928606 135.72 0.531928606 135.72 61.7119286 156.15 61.7119286 156.15 33.3919286 176.19 61.7119286 200.48 61.7119286"></polygon>
                <path d="M107.06,35.0019286 C107.227107,37.5555584 106.498629,40.0875468 105,42.1619286 C103.58,43.9119286 101.41,44.7919286 98.46,44.7919286 C95.51,44.7919286 93.39,43.9119286 92.07,42.1619286 C90.6070521,40.0699121 89.8790663,37.551855 90,35.0019286 L90,0.531928606 L69.71,0.531928606 L69.71,35.0019286 C69.71,41.2619286 70.9066667,46.5685953 73.3,50.9219286 C75.5536619,55.1436237 79.042507,58.5766472 83.3,60.7619286 C87.8552177,63.0558627 92.9006516,64.2056725 98,64.1119286 C103.189862,64.1840083 108.325295,63.0473657 113,60.7919286 C117.436701,58.627996 121.122215,55.1828418 123.58,50.9019286 C126.16,46.5219286 127.446667,41.2319286 127.440026,35.0319286 L127.440026,0.531928606 L107.06,0.531928606 L107.06,35.0019286 Z" id="letter--u" fill="#35444C"></path>
                <polygon id="letter--h" fill="#35444C" points="40.95 23.0619286 20.56 23.0619286 20.56 0.531928606 0.14 0.531928606 0.14 61.7119286 20.56 61.7119286 20.56 39.3319286 40.95 39.3319286 40.95 61.7119286 61.38 61.7119286 61.38 0.531928606 40.95 0.531928606"></polygon>
            </g>
            <g id="grid" stroke="#00ABBA">
                <polygon id="cell" points="20.42 62 7.10542736e-15 62 7.10542736e-15 82.42 20.42 82.42"></polygon>
                <polygon id="cell" points="20.42 41.58 7.10542736e-15 41.58 7.10542736e-15 62 20.42 62"></polygon>
                <polygon id="cell" points="20.42 21.16 7.10542736e-15 21.16 7.10542736e-15 41.58 20.42 41.58"></polygon>
                <polygon id="cell" points="20.42 0.74 7.10542736e-15 0.74 7.10542736e-15 21.16 20.42 21.16"></polygon>
                <polygon id="cell" points="20.42 82.42 7.10542736e-15 82.42 7.10542736e-15 102.84 20.42 102.84"></polygon>
                <polygon id="cell" points="20.42 102.84 7.10542736e-15 102.84 7.10542736e-15 123.26 20.42 123.26"></polygon>
                <polygon id="cell" points="20.42 123.26 7.10542736e-15 123.26 7.10542736e-15 143.68 20.42 143.68"></polygon>
                <polygon id="cell" points="20.42 143.68 7.10542736e-15 143.68 7.10542736e-15 164.1 20.42 164.1"></polygon>
                <polygon id="cell" points="40.84 62 20.42 62 20.42 82.42 40.84 82.42"></polygon>
                <polygon id="cell" points="40.84 41.58 20.42 41.58 20.42 62 40.84 62"></polygon>
                <polygon id="cell" points="40.84 21.16 20.42 21.16 20.42 41.58 40.84 41.58"></polygon>
                <polygon id="cell" points="40.84 0.74 20.42 0.74 20.42 21.16 40.84 21.16"></polygon>
                <polygon id="cell" points="40.84 82.42 20.42 82.42 20.42 102.84 40.84 102.84"></polygon>
                <polygon id="cell" points="40.84 102.84 20.42 102.84 20.42 123.26 40.84 123.26"></polygon>
                <polygon id="cell" points="40.84 123.26 20.42 123.26 20.42 143.68 40.84 143.68"></polygon>
                <polygon id="cell" points="40.84 143.68 20.42 143.68 20.42 164.1 40.84 164.1"></polygon>
                <polygon id="cell" points="61.26 62 40.84 62 40.84 82.42 61.26 82.42"></polygon>
                <polygon id="cell" points="61.26 41.58 40.84 41.58 40.84 62 61.26 62"></polygon>
                <polygon id="cell" points="61.26 21.16 40.84 21.16 40.84 41.58 61.26 41.58"></polygon>
                <polygon id="cell" points="61.26 0.74 40.84 0.74 40.84 21.16 61.26 21.16"></polygon>
                <polygon id="cell" points="61.26 82.42 40.84 82.42 40.84 102.84 61.26 102.84"></polygon>
                <polygon id="cell" points="61.26 102.84 40.84 102.84 40.84 123.26 61.26 123.26"></polygon>
                <polygon id="cell" points="61.26 123.26 40.84 123.26 40.84 143.68 61.26 143.68"></polygon>
                <polygon id="cell" points="61.26 143.68 40.84 143.68 40.84 164.1 61.26 164.1"></polygon>
                <polygon id="cell" points="81.68 62 61.26 62 61.26 82.42 81.68 82.42"></polygon>
                <polygon id="cell" points="81.68 41.58 61.26 41.58 61.26 62 81.68 62"></polygon>
                <polygon id="cell" points="81.68 21.16 61.26 21.16 61.26 41.58 81.68 41.58"></polygon>
                <polygon id="cell" points="81.68 0.74 61.26 0.74 61.26 21.16 81.68 21.16"></polygon>
                <polygon id="cell" points="81.68 82.42 61.26 82.42 61.26 102.84 81.68 102.84"></polygon>
                <polygon id="cell" points="81.68 102.84 61.26 102.84 61.26 123.26 81.68 123.26"></polygon>
                <polygon id="cell" points="81.68 123.26 61.26 123.26 61.26 143.68 81.68 143.68"></polygon>
                <polygon id="cell" points="81.68 143.68 61.26 143.68 61.26 164.1 81.68 164.1"></polygon>
                <polygon id="cell" points="102.1 62 81.68 62 81.68 82.42 102.1 82.42"></polygon>
                <polygon id="cell" points="102.1 41.58 81.68 41.58 81.68 62 102.1 62"></polygon>
                <polygon id="cell" points="102.1 21.16 81.68 21.16 81.68 41.58 102.1 41.58"></polygon>
                <polygon id="cell" points="102.1 0.74 81.68 0.74 81.68 21.16 102.1 21.16"></polygon>
                <polygon id="cell" points="102.1 82.42 81.68 82.42 81.68 102.84 102.1 102.84"></polygon>
                <polygon id="cell" points="102.1 102.84 81.68 102.84 81.68 123.26 102.1 123.26"></polygon>
                <polygon id="cell" points="102.1 123.26 81.68 123.26 81.68 143.68 102.1 143.68"></polygon>
                <polygon id="cell" points="102.1 143.68 81.68 143.68 81.68 164.1 102.1 164.1"></polygon>
                <polygon id="cell" points="122.52 62 102.1 62 102.1 82.42 122.52 82.42"></polygon>
                <polygon id="cell" points="122.52 41.58 102.1 41.58 102.1 62 122.52 62"></polygon>
                <polygon id="cell" points="122.52 21.16 102.1 21.16 102.1 41.58 122.52 41.58"></polygon>
                <polygon id="cell" points="122.52 0.74 102.1 0.74 102.1 21.16 122.52 21.16"></polygon>
                <polygon id="cell" points="122.52 82.42 102.1 82.42 102.1 102.84 122.52 102.84"></polygon>
                <polygon id="cell" points="122.52 102.84 102.1 102.84 102.1 123.26 122.52 123.26"></polygon>
                <polygon id="cell" points="122.52 123.26 102.1 123.26 102.1 143.68 122.52 143.68"></polygon>
                <polygon id="cell" points="122.52 143.68 102.1 143.68 102.1 164.1 122.52 164.1"></polygon>
                <polygon id="cell" points="142.94 62 122.52 62 122.52 82.42 142.94 82.42"></polygon>
                <polygon id="cell" points="142.94 41.58 122.52 41.58 122.52 62 142.94 62"></polygon>
                <polygon id="cell" points="142.94 21.16 122.52 21.16 122.52 41.58 142.94 41.58"></polygon>
                <polygon id="cell" points="142.94 0.74 122.52 0.74 122.52 21.16 142.94 21.16"></polygon>
                <polygon id="cell" points="142.94 82.42 122.52 82.42 122.52 102.84 142.94 102.84"></polygon>
                <polygon id="cell" points="142.94 102.84 122.52 102.84 122.52 123.26 142.94 123.26"></polygon>
                <polygon id="cell" points="142.94 123.26 122.52 123.26 122.52 143.68 142.94 143.68"></polygon>
                <polygon id="cell" points="142.94 143.68 122.52 143.68 122.52 164.1 142.94 164.1"></polygon>
                <polygon id="cell" points="163.36 62 142.94 62 142.94 82.42 163.36 82.42"></polygon>
                <polygon id="cell" points="163.36 41.58 142.94 41.58 142.94 62 163.36 62"></polygon>
                <polygon id="cell" points="163.36 21.16 142.94 21.16 142.94 41.58 163.36 41.58"></polygon>
                <polygon id="cell" points="163.36 0.74 142.94 0.74 142.94 21.16 163.36 21.16"></polygon>
                <polygon id="cell" points="163.36 82.42 142.94 82.42 142.94 102.84 163.36 102.84"></polygon>
                <polygon id="cell" points="163.36 102.84 142.94 102.84 142.94 123.26 163.36 123.26"></polygon>
                <polygon id="cell" points="163.36 123.26 142.94 123.26 142.94 143.68 163.36 143.68"></polygon>
                <polygon id="cell" points="163.36 143.68 142.94 143.68 142.94 164.1 163.36 164.1"></polygon>
                <polygon id="cell" points="183.78 62 163.36 62 163.36 82.42 183.78 82.42"></polygon>
                <polygon id="cell" points="183.78 41.58 163.36 41.58 163.36 62 183.78 62"></polygon>
                <polygon id="cell" points="183.78 21.16 163.36 21.16 163.36 41.58 183.78 41.58"></polygon>
                <polygon id="cell" points="183.78 0.74 163.36 0.74 163.36 21.16 183.78 21.16"></polygon>
                <polygon id="cell" points="183.78 82.42 163.36 82.42 163.36 102.84 183.78 102.84"></polygon>
                <polygon id="cell" points="183.78 102.84 163.36 102.84 163.36 123.26 183.78 123.26"></polygon>
                <polygon id="cell" points="183.78 123.26 163.36 123.26 163.36 143.68 183.78 143.68"></polygon>
                <polygon id="cell" points="183.78 143.68 163.36 143.68 163.36 164.1 183.78 164.1"></polygon>
                <polygon id="cell" points="204.2 62 183.78 62 183.78 82.42 204.2 82.42"></polygon>
                <polygon id="cell" points="204.2 41.58 183.78 41.58 183.78 62 204.2 62"></polygon>
                <polygon id="cell" points="204.2 21.16 183.78 21.16 183.78 41.58 204.2 41.58"></polygon>
                <polygon id="cell" points="204.2 0.74 183.78 0.74 183.78 21.16 204.2 21.16"></polygon>
                <polygon id="cell" points="204.2 82.42 183.78 82.42 183.78 102.84 204.2 102.84"></polygon>
                <polygon id="cell" points="204.2 102.84 183.78 102.84 183.78 123.26 204.2 123.26"></polygon>
                <polygon id="cell" points="204.2 123.26 183.78 123.26 183.78 143.68 204.2 143.68"></polygon>
                <polygon id="cell" points="204.2 143.68 183.78 143.68 183.78 164.1 204.2 164.1"></polygon>
                <polygon id="cell" points="224.62 62 204.2 62 204.2 82.42 224.62 82.42"></polygon>
                <polygon id="cell" points="224.62 41.58 204.2 41.58 204.2 62 224.62 62"></polygon>
                <polygon id="cell" points="224.62 21.16 204.2 21.16 204.2 41.58 224.62 41.58"></polygon>
                <polygon id="cell" points="224.62 0.74 204.2 0.74 204.2 21.16 224.62 21.16"></polygon>
                <polygon id="cell" points="224.62 82.42 204.2 82.42 204.2 102.84 224.62 102.84"></polygon>
                <polygon id="cell" points="224.62 102.84 204.2 102.84 204.2 123.26 224.62 123.26"></polygon>
                <polygon id="cell" points="224.62 123.26 204.2 123.26 204.2 143.68 224.62 143.68"></polygon>
                <polygon id="cell" points="224.62 143.68 204.2 143.68 204.2 164.1 224.62 164.1"></polygon>
                <polygon id="cell" points="245.04 62 224.62 62 224.62 82.42 245.04 82.42"></polygon>
                <polygon id="cell" points="245.04 41.58 224.62 41.58 224.62 62 245.04 62"></polygon>
                <polygon id="cell" points="245.04 21.16 224.62 21.16 224.62 41.58 245.04 41.58"></polygon>
                <polygon id="cell" points="245.04 0.74 224.62 0.74 224.62 21.16 245.04 21.16"></polygon>
                <polygon id="cell" points="245.04 82.42 224.62 82.42 224.62 102.84 245.04 102.84"></polygon>
                <polygon id="cell" points="245.04 102.84 224.62 102.84 224.62 123.26 245.04 123.26"></polygon>
                <polygon id="cell" points="245.04 123.26 224.62 123.26 224.62 143.68 245.04 143.68"></polygon>
                <polygon id="cell" points="245.04 143.68 224.62 143.68 224.62 164.1 245.04 164.1"></polygon>
                <polygon id="cell" points="265.46 62 245.04 62 245.04 82.42 265.46 82.42"></polygon>
                <polygon id="cell" points="265.46 41.58 245.04 41.58 245.04 62 265.46 62"></polygon>
                <polygon id="cell" points="265.46 21.16 245.04 21.16 245.04 41.58 265.46 41.58"></polygon>
                <polygon id="cell" points="265.46 0.74 245.04 0.74 245.04 21.16 265.46 21.16"></polygon>
                <polygon id="cell" points="265.46 82.42 245.04 82.42 245.04 102.84 265.46 102.84"></polygon>
                <polygon id="cell" points="265.46 102.84 245.04 102.84 245.04 123.26 265.46 123.26"></polygon>
                <polygon id="cell" points="265.46 123.26 245.04 123.26 245.04 143.68 265.46 143.68"></polygon>
                <polygon id="cell" points="265.46 143.68 245.04 143.68 245.04 164.1 265.46 164.1"></polygon>
                <polygon id="cell" points="285.88 62 265.46 62 265.46 82.42 285.88 82.42"></polygon>
                <polygon id="cell" points="285.88 41.58 265.46 41.58 265.46 62 285.88 62"></polygon>
                <polygon id="cell" points="285.88 21.16 265.46 21.16 265.46 41.58 285.88 41.58"></polygon>
                <polygon id="cell" points="285.88 0.74 265.46 0.74 265.46 21.16 285.88 21.16"></polygon>
                <polygon id="cell" points="285.88 82.42 265.46 82.42 265.46 102.84 285.88 102.84"></polygon>
                <polygon id="cell" points="285.88 102.84 265.46 102.84 265.46 123.26 285.88 123.26"></polygon>
                <polygon id="cell" points="285.88 123.26 265.46 123.26 265.46 143.68 285.88 143.68"></polygon>
                <polygon id="cell" points="285.88 143.68 265.46 143.68 265.46 164.1 285.88 164.1"></polygon>
                <polygon id="cell" points="306.3 62 285.88 62 285.88 82.42 306.3 82.42"></polygon>
                <polygon id="cell" points="306.3 41.58 285.88 41.58 285.88 62 306.3 62"></polygon>
                <polygon id="cell" points="306.3 21.16 285.88 21.16 285.88 41.58 306.3 41.58"></polygon>
                <polygon id="cell" points="306.3 0.74 285.88 0.74 285.88 21.16 306.3 21.16"></polygon>
                <polygon id="cell" points="306.3 82.42 285.88 82.42 285.88 102.84 306.3 102.84"></polygon>
                <polygon id="cell" points="306.3 102.84 285.88 102.84 285.88 123.26 306.3 123.26"></polygon>
                <polygon id="cell" points="306.3 123.26 285.88 123.26 285.88 143.68 306.3 143.68"></polygon>
                <polygon id="cell" points="306.3 143.68 285.88 143.68 285.88 164.1 306.3 164.1"></polygon>
                <polygon id="cell" points="326.72 62 306.3 62 306.3 82.42 326.72 82.42"></polygon>
                <polygon id="cell" points="326.72 41.58 306.3 41.58 306.3 62 326.72 62"></polygon>
                <polygon id="cell" points="326.72 21.16 306.3 21.16 306.3 41.58 326.72 41.58"></polygon>
                <polygon id="cell" points="326.72 0.74 306.3 0.74 306.3 21.16 326.72 21.16"></polygon>
                <polygon id="cell" points="326.72 82.42 306.3 82.42 306.3 102.84 326.72 102.84"></polygon>
                <polygon id="cell" points="326.72 102.84 306.3 102.84 306.3 123.26 326.72 123.26"></polygon>
                <polygon id="cell" points="326.72 123.26 306.3 123.26 306.3 143.68 326.72 143.68"></polygon>
                <polygon id="cell" points="326.72 143.68 306.3 143.68 306.3 164.1 326.72 164.1"></polygon>
                <polygon id="cell" points="347.14 62 326.72 62 326.72 82.42 347.14 82.42"></polygon>
                <polygon id="cell" points="347.14 41.58 326.72 41.58 326.72 62 347.14 62"></polygon>
                <polygon id="cell" points="347.14 21.16 326.72 21.16 326.72 41.58 347.14 41.58"></polygon>
                <polygon id="cell" points="347.14 0.74 326.72 0.74 326.72 21.16 347.14 21.16"></polygon>
                <polygon id="cell" points="347.14 82.42 326.72 82.42 326.72 102.84 347.14 102.84"></polygon>
                <polygon id="cell" points="347.14 102.84 326.72 102.84 326.72 123.26 347.14 123.26"></polygon>
                <polygon id="cell" points="347.14 123.26 326.72 123.26 326.72 143.68 347.14 143.68"></polygon>
                <polygon id="cell" points="347.14 143.68 326.72 143.68 326.72 164.1 347.14 164.1"></polygon>
                <polygon id="cell" points="367.56 62 347.14 62 347.14 82.42 367.56 82.42"></polygon>
                <polygon id="cell" points="367.56 41.58 347.14 41.58 347.14 62 367.56 62"></polygon>
                <polygon id="cell" points="367.56 21.16 347.14 21.16 347.14 41.58 367.56 41.58"></polygon>
                <polygon id="cell" points="367.56 0.74 347.14 0.74 347.14 21.16 367.56 21.16"></polygon>
                <polygon id="cell" points="367.56 82.42 347.14 82.42 347.14 102.84 367.56 102.84"></polygon>
                <polygon id="cell" points="367.56 102.84 347.14 102.84 347.14 123.26 367.56 123.26"></polygon>
                <polygon id="cell" points="367.56 123.26 347.14 123.26 347.14 143.68 367.56 143.68"></polygon>
                <polygon id="cell" points="367.56 143.68 347.14 143.68 347.14 164.1 367.56 164.1"></polygon>
                <polygon id="cell" points="408.4 62 387.98 62 387.98 82.42 408.4 82.42"></polygon>
                <polygon id="cell" points="408.4 41.58 387.98 41.58 387.98 62 408.4 62"></polygon>
                <polygon id="cell" points="408.4 21.16 387.98 21.16 387.98 41.58 408.4 41.58"></polygon>
                <polygon id="cell" points="408.4 0.74 387.98 0.74 387.98 21.16 408.4 21.16"></polygon>
                <polygon id="cell" points="408.4 82.42 387.98 82.42 387.98 102.84 408.4 102.84"></polygon>
                <polygon id="cell" points="408.4 102.84 387.98 102.84 387.98 123.26 408.4 123.26"></polygon>
                <polygon id="cell" points="408.4 123.26 387.98 123.26 387.98 143.68 408.4 143.68"></polygon>
                <polygon id="cell" points="408.4 143.68 387.98 143.68 387.98 164.1 408.4 164.1"></polygon>
                <polygon id="cell" points="387.98 62 367.56 62 367.56 82.42 387.98 82.42"></polygon>
                <polygon id="cell" points="387.98 41.58 367.56 41.58 367.56 62 387.98 62"></polygon>
                <polygon id="cell" points="387.98 21.16 367.56 21.16 367.56 41.58 387.98 41.58"></polygon>
                <polygon id="cell" points="387.98 0.74 367.56 0.74 367.56 21.16 387.98 21.16"></polygon>
                <polygon id="cell" points="387.98 82.42 367.56 82.42 367.56 102.84 387.98 102.84"></polygon>
                <polygon id="cell" points="387.98 102.84 367.56 102.84 367.56 123.26 387.98 123.26"></polygon>
                <polygon id="cell" points="387.98 123.26 367.56 123.26 367.56 143.68 387.98 143.68"></polygon>
                <polygon id="cell" points="387.98 143.68 367.56 143.68 367.56 164.1 387.98 164.1"></polygon>
                <polygon id="cell" points="428.82 62 408.4 62 408.4 82.42 428.82 82.42"></polygon>
                <polygon id="cell" points="428.82 41.58 408.4 41.58 408.4 62 428.82 62"></polygon>
                <polygon id="cell" points="428.82 21.16 408.4 21.16 408.4 41.58 428.82 41.58"></polygon>
                <polygon id="cell" points="428.82 0.74 408.4 0.74 408.4 21.16 428.82 21.16"></polygon>
                <polygon id="cell" points="428.82 82.42 408.4 82.42 408.4 102.84 428.82 102.84"></polygon>
                <polygon id="cell" points="428.82 102.84 408.4 102.84 408.4 123.26 428.82 123.26"></polygon>
                <polygon id="cell" points="428.82 123.26 408.4 123.26 408.4 143.68 428.82 143.68"></polygon>
                <polygon id="cell" points="428.82 143.68 408.4 143.68 408.4 164.1 428.82 164.1"></polygon>
            </g>
        </g>
    </g>
</svg>