<svg viewBox="0 0 512 86" version="1.1">
    <g id="Page-1" stroke="none" stroke-width="1" fill="none" fill-rule="evenodd">
        <g id="Desktop-HD" transform="translate(-604.000000, -344.000000)">
            <g id="spacing" transform="translate(604.000000, 344.000000)">
                <path d="M477.094,79.683 C477.761337,79.683 478.357164,79.9343308 478.8815,80.437 C479.405836,80.9396692 479.668,81.5896627 479.668,82.387 C479.668,83.193004 479.401503,83.8408309 478.8685,84.3305 C478.335497,84.8201691 477.692004,85.065 476.938,85.065 C476.183996,85.065 475.540503,84.8201691 475.0075,84.3305 C474.474497,83.8408309 474.208,83.1800042 474.208,82.348 C474.208,81.8886644 474.311999,81.4336689 474.52,80.983 C474.832002,80.3156633 475.64666,78.877011 476.964,76.667 L478.329,76.667 L476.288,79.878 C476.461334,79.7479994 476.729998,79.683 477.094,79.683 Z M476.938,83.999 C477.406002,83.999 477.787332,83.8516681 478.082,83.557 C478.376668,83.2623319 478.524,82.8723358 478.524,82.387 C478.524,81.9016642 478.374501,81.5095015 478.0755,81.2105 C477.776499,80.9114985 477.397336,80.762 476.938,80.762 C476.478664,80.762 476.099501,80.9114985 475.8005,81.2105 C475.501499,81.5095015 475.352,81.9016642 475.352,82.387 C475.352,82.8723358 475.501499,83.2623319 475.8005,83.557 C476.099501,83.8516681 476.478664,83.999 476.938,83.999 Z M485.5635,82.283 L486.9545,82.283 L486.9545,83.31 L485.5635,83.31 L485.5635,85 L484.4455,85 L484.4455,83.31 L480.7795,83.31 L480.7795,82.517 L483.8085,76.667 L485.5635,76.667 L485.5635,82.283 Z M482.1185,82.283 L484.4455,82.283 L484.4455,77.902 L484.3285,77.902 L482.1185,82.283 Z" id="64" fill="#34444D" fill-rule="nonzero"></path>
                <path d="M385.0745,79.449 C385.889171,79.449 386.547831,79.7003308 387.0505,80.203 C387.553169,80.7056692 387.8045,81.3946623 387.8045,82.27 C387.8045,83.1453377 387.548836,83.8299975 387.0375,84.324 C386.526164,84.8180025 385.867504,85.065 385.0615,85.065 C384.186162,85.065 383.508002,84.7941694 383.027,84.2525 C382.545998,83.7108306 382.3055,83.1150033 382.3055,82.465 L383.4365,82.465 C383.4365,82.8376685 383.590332,83.1864984 383.898,83.5115 C384.205668,83.8365016 384.606498,83.999 385.1005,83.999 C385.568502,83.999 385.949832,83.8451682 386.2445,83.5375 C386.539168,83.2298318 386.6865,82.8030027 386.6865,82.257 C386.6865,81.7369974 386.543501,81.305835 386.2575,80.9635 C385.971499,80.621165 385.53817,80.45 384.9575,80.45 C384.203496,80.45 383.683501,80.7273306 383.3975,81.282 L382.4745,80.983 L382.8645,76.667 L387.4145,76.667 L387.4145,77.759 L383.8005,77.759 L383.5665,79.891 C383.921835,79.5963319 384.424497,79.449 385.0745,79.449 Z M392.218,79.683 C392.885337,79.683 393.481164,79.9343308 394.0055,80.437 C394.529836,80.9396692 394.792,81.5896627 394.792,82.387 C394.792,83.193004 394.525503,83.8408309 393.9925,84.3305 C393.459497,84.8201691 392.816004,85.065 392.062,85.065 C391.307996,85.065 390.664503,84.8201691 390.1315,84.3305 C389.598497,83.8408309 389.332,83.1800042 389.332,82.348 C389.332,81.8886644 389.435999,81.4336689 389.644,80.983 C389.956002,80.3156633 390.77066,78.877011 392.088,76.667 L393.453,76.667 L391.412,79.878 C391.585334,79.7479994 391.853998,79.683 392.218,79.683 Z M392.062,83.999 C392.530002,83.999 392.911332,83.8516681 393.206,83.557 C393.500668,83.2623319 393.648,82.8723358 393.648,82.387 C393.648,81.9016642 393.498501,81.5095015 393.1995,81.2105 C392.900499,80.9114985 392.521336,80.762 392.062,80.762 C391.602664,80.762 391.223501,80.9114985 390.9245,81.2105 C390.625499,81.5095015 390.476,81.9016642 390.476,82.387 C390.476,82.8723358 390.625499,83.2623319 390.9245,83.557 C391.223501,83.8516681 391.602664,83.999 392.062,83.999 Z" id="56" fill="#34444D" fill-rule="nonzero"></path>
                <path d="M302.6345,82.283 L304.0255,82.283 L304.0255,83.31 L302.6345,83.31 L302.6345,85 L301.5165,85 L301.5165,83.31 L297.8505,83.31 L297.8505,82.517 L300.8795,76.667 L302.6345,76.667 L302.6345,82.283 Z M299.1895,82.283 L301.5165,82.283 L301.5165,77.902 L301.3995,77.902 L299.1895,82.283 Z M309.44,80.489 C309.864669,80.6190007 310.217832,80.8746648 310.4995,81.256 C310.781168,81.6373352 310.922,82.0923307 310.922,82.621 C310.922,83.3490036 310.662003,83.9383311 310.142,84.389 C309.621997,84.8396689 308.941671,85.065 308.101,85.065 C307.260329,85.065 306.584336,84.8396689 306.073,84.389 C305.561664,83.9383311 305.306,83.3533369 305.306,82.634 C305.306,82.0879973 305.448999,81.6265019 305.735,81.2495 C306.021001,80.8724981 306.371998,80.6190007 306.788,80.489 L306.788,80.385 C306.458665,80.2463326 306.192168,80.0210016 305.9885,79.709 C305.784832,79.3969984 305.683,79.046002 305.683,78.656 C305.683,78.057997 305.921331,77.5661686 306.398,77.1805 C306.874669,76.7948314 307.446663,76.602 308.114,76.602 C308.781337,76.602 309.353331,76.7948314 309.83,77.1805 C310.306669,77.5661686 310.545,78.057997 310.545,78.656 C310.545,79.046002 310.443168,79.3969984 310.2395,79.709 C310.035832,80.0210016 309.769335,80.2463326 309.44,80.385 L309.44,80.489 Z M309.05,77.876 C308.807332,77.6593323 308.495335,77.551 308.114,77.551 C307.732665,77.551 307.418501,77.6593323 307.1715,77.876 C306.924499,78.0926678 306.801,78.3786649 306.801,78.734 C306.801,79.1066685 306.933165,79.4056655 307.1975,79.631 C307.461835,79.8563345 307.762998,79.969 308.101,79.969 C308.439002,79.969 308.744499,79.8563345 309.0175,79.631 C309.290501,79.4056655 309.427,79.1066685 309.427,78.734 C309.427,78.3786649 309.301335,78.0926678 309.05,77.876 Z M306.905,83.635 C307.191001,83.9470016 307.585331,84.103 308.088,84.103 C308.590669,84.103 308.991499,83.9448349 309.2905,83.6285 C309.589501,83.3121651 309.739,82.9676685 309.739,82.595 C309.739,82.2223315 309.596001,81.8800016 309.31,81.568 C309.023999,81.2559984 308.621003,81.1 308.101,81.1 C307.580997,81.1 307.182335,81.2559984 306.905,81.568 C306.627665,81.8800016 306.489,82.2266648 306.489,82.608 C306.489,82.9806685 306.627665,83.3229984 306.905,83.635 Z" id="48" fill="#34444D" fill-rule="nonzero"></path>
                <path d="M226.537,82.283 L227.928,82.283 L227.928,83.31 L226.537,83.31 L226.537,85 L225.419,85 L225.419,83.31 L221.753,83.31 L221.753,82.517 L224.782,76.667 L226.537,76.667 L226.537,82.283 Z M223.092,82.283 L225.419,82.283 L225.419,77.902 L225.302,77.902 L223.092,82.283 Z M232.0815,85.065 C231.171495,85.065 230.434836,84.6750039 229.8715,83.895 C229.308164,83.1149961 229.0265,82.0923397 229.0265,80.827 C229.0265,79.5616603 229.308164,78.5411705 229.8715,77.7655 C230.434836,76.9898295 231.167162,76.602 232.0685,76.602 C232.978505,76.602 233.72383,76.9919961 234.3045,77.772 C234.88517,78.5520039 235.1755,79.5746603 235.1755,80.84 C235.1755,82.0966729 234.88517,83.1149961 234.3045,83.895 C233.72383,84.6750039 232.982838,85.065 232.0815,85.065 Z M232.0685,83.947 C232.683836,83.947 233.169165,83.6523363 233.5245,83.063 C233.879835,82.4736637 234.0575,81.7370044 234.0575,80.853 C234.0575,79.9516622 233.877668,79.2041696 233.518,78.6105 C233.158332,78.0168304 232.67517,77.72 232.0685,77.72 C231.470497,77.72 231.002502,78.0146637 230.6645,78.604 C230.326498,79.1933363 230.1575,79.9386622 230.1575,80.84 C230.1575,81.7500045 230.326498,82.4953304 230.6645,83.076 C231.002502,83.6566696 231.470497,83.947 232.0685,83.947 Z" id="40" fill="#34444D" fill-rule="nonzero"></path>
                <path d="M157.985,80.593 C158.340335,80.7403341 158.632832,80.9938315 158.8625,81.3535 C159.092168,81.7131685 159.207,82.1183311 159.207,82.569 C159.207,83.2536701 158.955669,83.8408309 158.453,84.3305 C157.950331,84.8201691 157.287337,85.065 156.464,85.065 C155.657996,85.065 155.005836,84.833169 154.5075,84.3695 C154.009164,83.905831 153.76,83.3403367 153.76,82.673 L154.865,82.673 C154.891,83.0110017 155.042665,83.3164986 155.32,83.5895 C155.597335,83.8625014 155.974331,83.999 156.451,83.999 C156.945002,83.999 157.328499,83.8495015 157.6015,83.5505 C157.874501,83.2514985 158.011,82.8983354 158.011,82.491 C158.011,82.1009981 157.881001,81.7673347 157.621,81.49 C157.360999,81.2126653 156.975336,81.074 156.464,81.074 L156.035,81.074 L156.035,80.099 L156.412,80.099 C156.810669,80.099 157.137832,79.9863345 157.3935,79.761 C157.649168,79.5356655 157.777,79.2410018 157.777,78.877 C157.777,78.5389983 157.662168,78.2551678 157.4325,78.0255 C157.202832,77.7958322 156.884335,77.681 156.477,77.681 C156.130332,77.681 155.831335,77.7676658 155.58,77.941 C155.328665,78.1143342 155.185667,78.3439986 155.151,78.63 L154.072,78.63 C154.072,78.0406637 154.310331,77.5553352 154.787,77.174 C155.263669,76.7926648 155.835663,76.602 156.503,76.602 C157.18767,76.602 157.757498,76.803498 158.2125,77.2065 C158.667502,77.609502 158.895,78.1186636 158.895,78.734 C158.895,79.1066685 158.810501,79.4424985 158.6415,79.7415 C158.472499,80.0405015 158.253668,80.2723325 157.985,80.437 L157.985,80.593 Z M163.8935,81.906 C163.20883,82.3306688 162.717001,82.6838319 162.418,82.9655 C162.118999,83.2471681 161.9695,83.5613316 161.9695,83.908 L166.0125,83.908 L166.0125,85 L160.7475,85 L160.7475,84.337 C160.7475,83.9729982 160.790833,83.6436681 160.8775,83.349 C160.964167,83.0543319 161.065999,82.8116676 161.183,82.621 C161.300001,82.4303324 161.464666,82.2440009 161.677,82.062 C161.889334,81.8799991 162.069166,81.7413338 162.2165,81.646 C162.363834,81.5506662 162.567499,81.4293341 162.8275,81.282 L162.9055,81.243 C162.922833,81.2343333 162.935833,81.2256667 162.9445,81.217 C163.282502,81.0263324 163.540332,80.8746672 163.718,80.762 C163.895668,80.6493328 164.090666,80.5020009 164.303,80.32 C164.515334,80.1379991 164.669166,79.9473343 164.7645,79.748 C164.859834,79.5486657 164.9075,79.3276679 164.9075,79.085 C164.9075,78.694998 164.781835,78.3700013 164.5305,78.11 C164.279165,77.8499987 163.945502,77.72 163.5295,77.72 C163.035498,77.72 162.643335,77.8933316 162.353,78.24 C162.062665,78.5866684 161.9175,78.9549981 161.9175,79.345 L160.7605,79.345 C160.7605,79.0503319 160.814666,78.7491682 160.923,78.4415 C161.031334,78.1338318 161.191666,77.8391681 161.404,77.5575 C161.616334,77.2758319 161.906665,77.0461676 162.275,76.8685 C162.643335,76.6908324 163.057164,76.602 163.5165,76.602 C164.261837,76.602 164.874998,76.8186645 165.356,77.252 C165.837002,77.6853355 166.0775,78.2746629 166.0775,79.02 C166.0775,79.3753351 166.021167,79.7003319 165.9085,79.995 C165.795833,80.2896681 165.624668,80.5518322 165.395,80.7815 C165.165332,81.0111678 164.959501,81.193166 164.7775,81.3275 C164.595499,81.461834 164.357168,81.6199991 164.0625,81.802 C164.027833,81.8280001 163.9975,81.8474999 163.9715,81.8605 C163.9455,81.8735001 163.9195,81.8886666 163.8935,81.906 Z" id="32" fill="#34444D" fill-rule="nonzero"></path>
                <path d="M97.5425,81.906 C96.8578299,82.3306688 96.3660015,82.6838319 96.067,82.9655 C95.7679985,83.2471681 95.6185,83.5613316 95.6185,83.908 L99.6615,83.908 L99.6615,85 L94.3965,85 L94.3965,84.337 C94.3965,83.9729982 94.4398329,83.6436681 94.5265,83.349 C94.6131671,83.0543319 94.7149994,82.8116676 94.832,82.621 C94.9490006,82.4303324 95.1136656,82.2440009 95.326,82.062 C95.5383344,81.8799991 95.7181659,81.7413338 95.8655,81.646 C96.0128341,81.5506662 96.2164987,81.4293341 96.4765,81.282 L96.5545,81.243 C96.5718334,81.2343333 96.5848333,81.2256667 96.5935,81.217 C96.9315017,81.0263324 97.1893324,80.8746672 97.367,80.762 C97.5446676,80.6493328 97.7396656,80.5020009 97.952,80.32 C98.1643344,80.1379991 98.3181662,79.9473343 98.4135,79.748 C98.5088338,79.5486657 98.5565,79.3276679 98.5565,79.085 C98.5565,78.694998 98.4308346,78.3700013 98.1795,78.11 C97.9281654,77.8499987 97.5945021,77.72 97.1785,77.72 C96.6844975,77.72 96.2923348,77.8933316 96.002,78.24 C95.7116652,78.5866684 95.5665,78.9549981 95.5665,79.345 L94.4095,79.345 C94.4095,79.0503319 94.4636661,78.7491682 94.572,78.4415 C94.6803339,78.1338318 94.8406656,77.8391681 95.053,77.5575 C95.2653344,77.2758319 95.5556648,77.0461676 95.924,76.8685 C96.2923352,76.6908324 96.7061644,76.602 97.1655,76.602 C97.9108371,76.602 98.5239976,76.8186645 99.005,77.252 C99.4860024,77.6853355 99.7265,78.2746629 99.7265,79.02 C99.7265,79.3753351 99.6701672,79.7003319 99.5575,79.995 C99.4448328,80.2896681 99.2736678,80.5518322 99.044,80.7815 C98.8143322,81.0111678 98.6085009,81.193166 98.4265,81.3275 C98.2444991,81.461834 98.0061681,81.6199991 97.7115,81.802 C97.6768332,81.8280001 97.6465001,81.8474999 97.6205,81.8605 C97.5944999,81.8735001 97.5685001,81.8886666 97.5425,81.906 Z M105.635,82.283 L107.026,82.283 L107.026,83.31 L105.635,83.31 L105.635,85 L104.517,85 L104.517,83.31 L100.851,83.31 L100.851,82.517 L103.88,76.667 L105.635,76.667 L105.635,82.283 Z M102.19,82.283 L104.517,82.283 L104.517,77.902 L104.4,77.902 L102.19,82.283 Z" id="24" fill="#34444D" fill-rule="nonzero"></path>
                <path d="M44.607,85 L44.607,78.916 L43.021,78.916 L43.021,77.993 L43.97,77.993 C44.178001,77.993 44.349166,77.925834 44.4835,77.7915 C44.617834,77.657166 44.685,77.4816677 44.685,77.265 L44.685,76.68 L45.751,76.68 L45.764,85 L44.607,85 Z M50.5025,79.683 C51.1698367,79.683 51.765664,79.9343308 52.29,80.437 C52.814336,80.9396692 53.0765,81.5896627 53.0765,82.387 C53.0765,83.193004 52.8100027,83.8408309 52.277,84.3305 C51.7439973,84.8201691 51.1005038,85.065 50.3465,85.065 C49.5924962,85.065 48.9490027,84.8201691 48.416,84.3305 C47.8829973,83.8408309 47.6165,83.1800042 47.6165,82.348 C47.6165,81.8886644 47.720499,81.4336689 47.9285,80.983 C48.2405016,80.3156633 49.0551601,78.877011 50.3725,76.667 L51.7375,76.667 L49.6965,79.878 C49.8698342,79.7479994 50.1384982,79.683 50.5025,79.683 Z M50.3465,83.999 C50.8145023,83.999 51.1958319,83.8516681 51.4905,83.557 C51.7851681,83.2623319 51.9325,82.8723358 51.9325,82.387 C51.9325,81.9016642 51.7830015,81.5095015 51.484,81.2105 C51.1849985,80.9114985 50.8058356,80.762 50.3465,80.762 C49.8871644,80.762 49.5080015,80.9114985 49.209,81.2105 C48.9099985,81.5095015 48.7605,81.9016642 48.7605,82.387 C48.7605,82.8723358 48.9099985,83.2623319 49.209,83.557 C49.5080015,83.8516681 49.8871644,83.999 50.3465,83.999 Z" id="16" fill="#34444D" fill-rule="nonzero"></path>
                <path d="M5.40725,80.489 C5.83191879,80.6190007 6.18508192,80.8746648 6.46675,81.256 C6.74841808,81.6373352 6.88925,82.0923307 6.88925,82.621 C6.88925,83.3490036 6.6292526,83.9383311 6.10925,84.389 C5.5892474,84.8396689 4.90892087,85.065 4.06825,85.065 C3.22757913,85.065 2.55158589,84.8396689 2.04025,84.389 C1.52891411,83.9383311 1.27325,83.3533369 1.27325,82.634 C1.27325,82.0879973 1.41624857,81.6265019 1.70225,81.2495 C1.98825143,80.8724981 2.33924792,80.6190007 2.75525,80.489 L2.75525,80.385 C2.42591502,80.2463326 2.15941768,80.0210016 1.95575,79.709 C1.75208231,79.3969984 1.65025,79.046002 1.65025,78.656 C1.65025,78.057997 1.88858095,77.5661686 2.36525,77.1805 C2.84191905,76.7948314 3.41391333,76.602 4.08125,76.602 C4.74858667,76.602 5.32058095,76.7948314 5.79725,77.1805 C6.27391905,77.5661686 6.51225,78.057997 6.51225,78.656 C6.51225,79.046002 6.41041769,79.3969984 6.20675,79.709 C6.00308232,80.0210016 5.73658498,80.2463326 5.40725,80.385 L5.40725,80.489 Z M5.01725,77.876 C4.77458212,77.6593323 4.46258524,77.551 4.08125,77.551 C3.69991476,77.551 3.38575123,77.6593323 3.13875,77.876 C2.89174876,78.0926678 2.76825,78.3786649 2.76825,78.734 C2.76825,79.1066685 2.90041534,79.4056655 3.16475,79.631 C3.42908465,79.8563345 3.73024831,79.969 4.06825,79.969 C4.40625169,79.969 4.71174863,79.8563345 4.98475,79.631 C5.25775136,79.4056655 5.39425,79.1066685 5.39425,78.734 C5.39425,78.3786649 5.26858459,78.0926678 5.01725,77.876 Z M2.87225,83.635 C3.15825143,83.9470016 3.55258082,84.103 4.05525,84.103 C4.55791918,84.103 4.9587485,83.9448349 5.25775,83.6285 C5.5567515,83.3121651 5.70625,82.9676685 5.70625,82.595 C5.70625,82.2223315 5.56325143,81.8800016 5.27725,81.568 C4.99124857,81.2559984 4.5882526,81.1 4.06825,81.1 C3.5482474,81.1 3.14958472,81.2559984 2.87225,81.568 C2.59491528,81.8800016 2.45625,82.2266648 2.45625,82.608 C2.45625,82.9806685 2.59491528,83.3229984 2.87225,83.635 Z" id="8" fill="#34444D" fill-rule="nonzero"></path>
                <rect id="r--64" fill="#EBFEFF" x="448" y="0" width="64" height="64" rx="2"></rect>
                <rect id="r--56" fill="#E0F7F8" x="360" y="8" width="56" height="56" rx="2"></rect>
                <rect id="r--48" fill="#80DDE4" x="280" y="16" width="48" height="48" rx="2"></rect>
                <rect id="r--40" fill="#00ABBA" x="208" y="24" width="40" height="40" rx="2"></rect>
                <rect id="r--32" fill="#00ABBA" x="144" y="32" width="32" height="32" rx="2"></rect>
                <rect id="r--24" fill="#00ABBA" x="88" y="40" width="24" height="24" rx="2"></rect>
                <rect id="r--16" fill="#0395A1" x="40" y="48" width="16" height="16" rx="2"></rect>
                <rect id="r--8" fill="#055E5F" x="0" y="56" width="8" height="8" rx="2"></rect>
                <path d="M4,60 L480,32" id="line" stroke="#FB9105" stroke-width="2" stroke-linecap="square" stroke-linejoin="round"></path>
            </g>
        </g>
    </g>
</svg>
