<?xml version="1.0" encoding="UTF-8"?>
<svg width="300%" viewBox="0 0 4740 1210" version="1.1" xmlns="http://www.w3.org/2000/svg" xmlns:xlink="http://www.w3.org/1999/xlink">
    <!-- Generator: Sketch 57.1 (83088) - https://sketch.com -->
    <title>wireframe--all</title>
    <desc>Created with Sketch.</desc>
    <defs>
        <rect id="path-1" x="0" y="0" width="1500" height="1130" rx="20"></rect>
        <filter x="-2.8%" y="-2.9%" width="105.7%" height="107.5%" filterUnits="objectBoundingBox" id="filter-2">
            <feMorphology radius="2.5" operator="dilate" in="SourceAlpha" result="shadowSpreadOuter1"></feMorphology>
            <feOffset dx="0" dy="10" in="shadowSpreadOuter1" result="shadowOffsetOuter1"></feOffset>
            <feGaussianBlur stdDeviation="10" in="shadowOffsetOuter1" result="shadowBlurOuter1"></feGaussianBlur>
            <feColorMatrix values="0 0 0 0 0   0 0 0 0 0   0 0 0 0 0  0 0 0 0.08 0" type="matrix" in="shadowBlurOuter1" result="shadowMatrixOuter1"></feColorMatrix>
            <feOffset dx="0" dy="5" in="SourceAlpha" result="shadowOffsetOuter2"></feOffset>
            <feGaussianBlur stdDeviation="5" in="shadowOffsetOuter2" result="shadowBlurOuter2"></feGaussianBlur>
            <feColorMatrix values="0 0 0 0 0   0 0 0 0 0   0 0 0 0 0  0 0 0 0.12 0" type="matrix" in="shadowBlurOuter2" result="shadowMatrixOuter2"></feColorMatrix>
            <feMerge>
                <feMergeNode in="shadowMatrixOuter1"></feMergeNode>
                <feMergeNode in="shadowMatrixOuter2"></feMergeNode>
            </feMerge>
        </filter>
        <linearGradient x1="50%" y1="0%" x2="50%" y2="100%" id="linearGradient-3">
            <stop stop-color="#F7F7F8" offset="0%"></stop>
            <stop stop-color="#F7F7F8" stop-opacity="0" offset="100%"></stop>
        </linearGradient>
        <rect id="path-4" x="485" y="830" width="467" height="112" rx="8"></rect>
        <filter x="-9.1%" y="-29.0%" width="118.2%" height="175.9%" filterUnits="objectBoundingBox" id="filter-5">
            <feMorphology radius="2.5" operator="dilate" in="SourceAlpha" result="shadowSpreadOuter1"></feMorphology>
            <feOffset dx="0" dy="10" in="shadowSpreadOuter1" result="shadowOffsetOuter1"></feOffset>
            <feGaussianBlur stdDeviation="10" in="shadowOffsetOuter1" result="shadowBlurOuter1"></feGaussianBlur>
            <feColorMatrix values="0 0 0 0 0.431372549   0 0 0 0 0.431372549   0 0 0 0 0.431372549  0 0 0 0.1 0" type="matrix" in="shadowBlurOuter1" result="shadowMatrixOuter1"></feColorMatrix>
            <feOffset dx="0" dy="5" in="SourceAlpha" result="shadowOffsetOuter2"></feOffset>
            <feGaussianBlur stdDeviation="5" in="shadowOffsetOuter2" result="shadowBlurOuter2"></feGaussianBlur>
            <feColorMatrix values="0 0 0 0 0   0 0 0 0 0   0 0 0 0 0  0 0 0 0.115092844 0" type="matrix" in="shadowBlurOuter2" result="shadowMatrixOuter2"></feColorMatrix>
            <feMerge>
                <feMergeNode in="shadowMatrixOuter1"></feMergeNode>
                <feMergeNode in="shadowMatrixOuter2"></feMergeNode>
            </feMerge>
        </filter>
        <rect id="path-6" x="0" y="0" width="320" height="667" rx="20"></rect>
        <filter x="-13.3%" y="-4.9%" width="126.6%" height="112.7%" filterUnits="objectBoundingBox" id="filter-7">
            <feMorphology radius="2.5" operator="dilate" in="SourceAlpha" result="shadowSpreadOuter1"></feMorphology>
            <feOffset dx="0" dy="10" in="shadowSpreadOuter1" result="shadowOffsetOuter1"></feOffset>
            <feGaussianBlur stdDeviation="10" in="shadowOffsetOuter1" result="shadowBlurOuter1"></feGaussianBlur>
            <feColorMatrix values="0 0 0 0 0   0 0 0 0 0   0 0 0 0 0  0 0 0 0.08 0" type="matrix" in="shadowBlurOuter1" result="shadowMatrixOuter1"></feColorMatrix>
            <feOffset dx="0" dy="5" in="SourceAlpha" result="shadowOffsetOuter2"></feOffset>
            <feGaussianBlur stdDeviation="5" in="shadowOffsetOuter2" result="shadowBlurOuter2"></feGaussianBlur>
            <feColorMatrix values="0 0 0 0 0   0 0 0 0 0   0 0 0 0 0  0 0 0 0.12 0" type="matrix" in="shadowBlurOuter2" result="shadowMatrixOuter2"></feColorMatrix>
            <feMerge>
                <feMergeNode in="shadowMatrixOuter1"></feMergeNode>
                <feMergeNode in="shadowMatrixOuter2"></feMergeNode>
            </feMerge>
        </filter>
        <linearGradient x1="50%" y1="0%" x2="50%" y2="100%" id="linearGradient-8">
            <stop stop-color="#F7F7F8" offset="0%"></stop>
            <stop stop-color="#F7F7F8" stop-opacity="0" offset="100%"></stop>
        </linearGradient>
        <rect id="path-9" x="24" y="483" width="272" height="88" rx="8"></rect>
        <filter x="-15.6%" y="-36.9%" width="131.2%" height="196.6%" filterUnits="objectBoundingBox" id="filter-10">
            <feMorphology radius="2.5" operator="dilate" in="SourceAlpha" result="shadowSpreadOuter1"></feMorphology>
            <feOffset dx="0" dy="10" in="shadowSpreadOuter1" result="shadowOffsetOuter1"></feOffset>
            <feGaussianBlur stdDeviation="10" in="shadowOffsetOuter1" result="shadowBlurOuter1"></feGaussianBlur>
            <feColorMatrix values="0 0 0 0 0.431372549   0 0 0 0 0.431372549   0 0 0 0 0.431372549  0 0 0 0.1 0" type="matrix" in="shadowBlurOuter1" result="shadowMatrixOuter1"></feColorMatrix>
            <feOffset dx="0" dy="5" in="SourceAlpha" result="shadowOffsetOuter2"></feOffset>
            <feGaussianBlur stdDeviation="5" in="shadowOffsetOuter2" result="shadowBlurOuter2"></feGaussianBlur>
            <feColorMatrix values="0 0 0 0 0   0 0 0 0 0   0 0 0 0 0  0 0 0 0.115092844 0" type="matrix" in="shadowBlurOuter2" result="shadowMatrixOuter2"></feColorMatrix>
            <feMerge>
                <feMergeNode in="shadowMatrixOuter1"></feMergeNode>
                <feMergeNode in="shadowMatrixOuter2"></feMergeNode>
            </feMerge>
        </filter>
        <rect id="path-11" x="0" y="0" width="680" height="936" rx="20"></rect>
        <filter x="-6.2%" y="-3.5%" width="112.5%" height="109.1%" filterUnits="objectBoundingBox" id="filter-12">
            <feMorphology radius="2.5" operator="dilate" in="SourceAlpha" result="shadowSpreadOuter1"></feMorphology>
            <feOffset dx="0" dy="10" in="shadowSpreadOuter1" result="shadowOffsetOuter1"></feOffset>
            <feGaussianBlur stdDeviation="10" in="shadowOffsetOuter1" result="shadowBlurOuter1"></feGaussianBlur>
            <feColorMatrix values="0 0 0 0 0   0 0 0 0 0   0 0 0 0 0  0 0 0 0.08 0" type="matrix" in="shadowBlurOuter1" result="shadowMatrixOuter1"></feColorMatrix>
            <feOffset dx="0" dy="5" in="SourceAlpha" result="shadowOffsetOuter2"></feOffset>
            <feGaussianBlur stdDeviation="5" in="shadowOffsetOuter2" result="shadowBlurOuter2"></feGaussianBlur>
            <feColorMatrix values="0 0 0 0 0   0 0 0 0 0   0 0 0 0 0  0 0 0 0.12 0" type="matrix" in="shadowBlurOuter2" result="shadowMatrixOuter2"></feColorMatrix>
            <feMerge>
                <feMergeNode in="shadowMatrixOuter1"></feMergeNode>
                <feMergeNode in="shadowMatrixOuter2"></feMergeNode>
            </feMerge>
        </filter>
        <linearGradient x1="50%" y1="0%" x2="50%" y2="100%" id="linearGradient-13">
            <stop stop-color="#F7F7F8" offset="0%"></stop>
            <stop stop-color="#F7F7F8" stop-opacity="0" offset="100%"></stop>
        </linearGradient>
        <rect id="path-14" x="106" y="702" width="424" height="88" rx="8"></rect>
        <filter x="-10.0%" y="-36.9%" width="120.0%" height="196.6%" filterUnits="objectBoundingBox" id="filter-15">
            <feMorphology radius="2.5" operator="dilate" in="SourceAlpha" result="shadowSpreadOuter1"></feMorphology>
            <feOffset dx="0" dy="10" in="shadowSpreadOuter1" result="shadowOffsetOuter1"></feOffset>
            <feGaussianBlur stdDeviation="10" in="shadowOffsetOuter1" result="shadowBlurOuter1"></feGaussianBlur>
            <feColorMatrix values="0 0 0 0 0.431372549   0 0 0 0 0.431372549   0 0 0 0 0.431372549  0 0 0 0.1 0" type="matrix" in="shadowBlurOuter1" result="shadowMatrixOuter1"></feColorMatrix>
            <feOffset dx="0" dy="5" in="SourceAlpha" result="shadowOffsetOuter2"></feOffset>
            <feGaussianBlur stdDeviation="5" in="shadowOffsetOuter2" result="shadowBlurOuter2"></feGaussianBlur>
            <feColorMatrix values="0 0 0 0 0   0 0 0 0 0   0 0 0 0 0  0 0 0 0.115092844 0" type="matrix" in="shadowBlurOuter2" result="shadowMatrixOuter2"></feColorMatrix>
            <feMerge>
                <feMergeNode in="shadowMatrixOuter1"></feMergeNode>
                <feMergeNode in="shadowMatrixOuter2"></feMergeNode>
            </feMerge>
        </filter>
    </defs>
    <g id="wireframe--all" stroke="none" stroke-width="1" fill="none" fill-rule="evenodd">
        <g id="wireframe--desktop" transform="translate(3200.000000, 40.000000)">
            <g id="bg--white--d">
                <use fill="black" fill-opacity="1" filter="url(#filter-2)" xlink:href="#path-1"></use>
                <use fill="#FFFFFF" fill-rule="evenodd" xlink:href="#path-1"></use>
            </g>
            <rect id="bg--gradient" fill="url(#linearGradient-3)" x="0" y="116" width="1500" height="213"></rect>
            <path d="M990.322022,335.199694 L1499.99928,530.846792 L1499.99928,689.849792 L1226.79553,870.70596 C1221.13591,874.45251 1214.0145,875.232668 1207.67798,872.800306 L560.466498,624.359095 C556.34168,622.775726 554.281429,618.148326 555.864798,614.023508 C556.461627,612.468716 557.528808,611.138946 558.917509,610.219655 L971.204472,337.29404 C976.864087,333.54749 983.985502,332.767332 990.322022,335.199694 Z" id="Path" fill="#FEF1DA"></path>
            <g id="cta--bg" fill-rule="nonzero">
                <use fill="black" fill-opacity="1" filter="url(#filter-5)" xlink:href="#path-4"></use>
                <use fill="#FFFFFF" xlink:href="#path-4"></use>
            </g>
            <rect id="cta--btn" fill="#00ABBA" x="791" y="854" width="225" height="64" rx="4"></rect>
            <rect id="cta--text" fill="#68747A" x="529" y="870" width="224" height="32" rx="4"></rect>
            <rect id="bullet--text--3" fill="#B0B6BA" x="336" y="515" width="165" height="20" rx="4"></rect>
            <rect id="bullet--3" fill="#FBA308" x="300" y="515" width="20" height="20" rx="10"></rect>
            <rect id="bullet--text--2" fill="#B0B6BA" x="336" y="479" width="235" height="20" rx="4"></rect>
            <rect id="bullet--2" fill="#FBA308" x="300" y="479" width="20" height="20" rx="10"></rect>
            <rect id="bullet--text--1" fill="#B0B6BA" x="336" y="443" width="225" height="20" rx="4"></rect>
            <rect id="bullet--1" fill="#FBA308" x="300" y="443" width="20" height="20" rx="10"></rect>
            <rect id="h1--line-2" fill="#68747A" x="300" y="367" width="348" height="28" rx="4"></rect>
            <rect id="h1--line-1" fill="#68747A" x="300" y="319" width="447" height="28" rx="4"></rect>
            <rect id="h1--tag" fill="#FBA308" x="300" y="283" width="82" height="16" rx="8"></rect>
            <rect id="nav--1" fill="#B0B6BA" x="488" y="48" width="127" height="20" rx="4"></rect>
            <rect id="nav--2" fill="#B0B6BA" x="663" y="48" width="107" height="20" rx="4"></rect>
            <rect id="nav--3" fill="#B0B6BA" x="818" y="48" width="137" height="20" rx="4"></rect>
            <g id="logo" transform="translate(300.000000, 48.000000)">
                <polygon id="letter--klammer--rechts" fill="#35444C" fill-rule="nonzero" points="108.965676 0 101 0 108.572147 9.91173586 101.285308 20 109.300175 20 116 9.91173586"></polygon>
                <rect id="Rectangle" fill="#35444C" x="0" y="5.68434189e-14" width="66" height="20" rx="4"></rect>
                <rect id="Rectangle-Copy" fill="#FBA308" x="68" y="5.68434189e-14" width="32" height="20" rx="4"></rect>
            </g>
        </g>
        <g id="wireframe--mobile" transform="translate(630.000000, 272.000000)">
            <g id="bg--white">
                <use fill="black" fill-opacity="1" filter="url(#filter-7)" xlink:href="#path-6"></use>
                <use fill="#FFFFFF" fill-rule="evenodd" xlink:href="#path-6"></use>
            </g>
            <rect id="bg--gradient" fill="url(#linearGradient-8)" x="0" y="84" width="320" height="213"></rect>
            <path d="M161.248835,339.527129 L319.999992,400.466227 L319.999992,448.001227 L235.933411,503.664351 C230.273539,507.411937 223.151257,508.192572 216.814002,505.759928 L27.116206,432.941766 C22.9913881,431.358397 20.9311369,426.730997 22.5145062,422.606179 C23.1112313,421.051657 24.1781477,419.722073 25.5665087,418.802794 L142.129425,341.622706 C147.789298,337.875121 154.91158,337.094485 161.248835,339.527129 Z" id="car-stage" fill="#FEF1DA"></path>
            <g id="cta--bg" fill-rule="nonzero">
                <use fill="black" fill-opacity="1" filter="url(#filter-10)" xlink:href="#path-9"></use>
                <use fill="#FFFFFF" xlink:href="#path-9"></use>
            </g>
            <rect id="cta--btn" fill="#00ABBA" x="48" y="547" width="224" height="48" rx="4"></rect>
            <rect id="cta--text" fill="#68747A" x="71" y="507" width="179" height="28" rx="4"></rect>
            <rect id="bullet--text--3" fill="#B0B6BA" x="52" y="300" width="105" height="16" rx="4"></rect>
            <rect id="bullet--3" fill="#FBA308" x="24" y="300" width="16" height="16" rx="8"></rect>
            <rect id="bullet--text--2" fill="#B0B6BA" x="52" y="272" width="135" height="16" rx="4"></rect>
            <rect id="bullet--2" fill="#FBA308" x="24" y="272" width="16" height="16" rx="8"></rect>
            <rect id="bullet--text--1" fill="#B0B6BA" x="52" y="244" width="125" height="16" rx="4"></rect>
            <rect id="bullet--1" fill="#FBA308" x="24" y="244" width="16" height="16" rx="8"></rect>
            <rect id="h1--line-2" fill="#68747A" x="24" y="188" width="215" height="20" rx="4"></rect>
            <rect id="h1--line-1" fill="#68747A" x="24" y="156" width="248" height="20" rx="4"></rect>
            <rect id="h1--tag" fill="#FBA308" x="24" y="132" width="42" height="12" rx="6"></rect>
            <g id="burger" transform="translate(268.000000, 35.000000)" fill="#68747A">
                <rect id="Rectangle" x="0" y="0" width="16" height="2" rx="1"></rect>
                <rect id="Rectangle" x="0" y="6" width="16" height="2" rx="1"></rect>
                <rect id="Rectangle" x="0" y="12" width="16" height="2" rx="1"></rect>
            </g>
            <g id="logo" transform="translate(24.000000, 32.000000)">
                <polygon id="letter--klammer--rechts" fill="#35444C" fill-rule="nonzero" points="108.965676 0 101 0 108.572147 9.91173586 101.285308 20 109.300175 20 116 9.91173586"></polygon>
                <rect id="Rectangle" fill="#35444C" x="0" y="5.68434189e-14" width="66" height="20" rx="4"></rect>
                <rect id="Rectangle-Copy" fill="#FBA308" x="68" y="5.68434189e-14" width="32" height="20" rx="4"></rect>
            </g>
        </g>
        <g id="wireframe--tablet" transform="translate(2030.000000, 137.000000)">
            <g id="bg--white--t">
                <use fill="black" fill-opacity="1" filter="url(#filter-12)" xlink:href="#path-11"></use>
                <use fill="#FFFFFF" fill-rule="evenodd" xlink:href="#path-11"></use>
            </g>
            <rect id="bg--gradient" fill="url(#linearGradient-13)" x="0" y="100" width="680" height="213"></rect>
            <path d="M407.533154,392.095601 L679.999974,496.685699 L679.999974,742.941699 L589.586427,802.808708 C583.92653,806.556389 576.804168,807.337069 570.466846,804.904399 L77.0741874,615.508702 C72.9493695,613.925333 70.8891183,609.297933 72.4724876,605.173115 C73.069203,603.618618 74.1360949,602.289051 75.5244244,601.369773 L388.413573,394.191292 C394.07347,390.443611 401.195832,389.662931 407.533154,392.095601 Z" id="Path" fill="#FEF1DA"></path>
            <g id="cta--bg" fill-rule="nonzero">
                <use fill="black" fill-opacity="1" filter="url(#filter-15)" xlink:href="#path-14"></use>
                <use fill="#FFFFFF" xlink:href="#path-14"></use>
            </g>
            <rect id="cta--btn" fill="#00ABBA" x="349" y="722" width="225" height="48" rx="4"></rect>
            <rect id="cta--text" fill="#68747A" x="146" y="732" width="179" height="28" rx="4"></rect>
            <rect id="bullet--text--3" fill="#B0B6BA" x="92" y="384" width="165" height="16" rx="4"></rect>
            <rect id="bullet--3" fill="#FBA308" x="64" y="384" width="16" height="16" rx="8"></rect>
            <rect id="bullet--text--2" fill="#B0B6BA" x="92" y="352" width="235" height="16" rx="4"></rect>
            <rect id="bullet--2" fill="#FBA308" x="64" y="352" width="16" height="16" rx="8"></rect>
            <rect id="bullet--text--1" fill="#B0B6BA" x="92" y="320" width="225" height="16" rx="4"></rect>
            <rect id="bullet--1" fill="#FBA308" x="64" y="320" width="16" height="16" rx="8"></rect>
            <rect id="h1--line-2" fill="#68747A" x="64" y="252" width="348" height="20" rx="4"></rect>
            <rect id="h1--line-1" fill="#68747A" x="64" y="212" width="447" height="20" rx="4"></rect>
            <rect id="h1--tag" fill="#FBA308" x="64" y="180" width="42" height="12" rx="6"></rect>
            <g id="burger" transform="translate(616.000000, 43.000000)" fill="#68747A">
                <rect id="Rectangle" x="0" y="0" width="16" height="2" rx="1"></rect>
                <rect id="Rectangle" x="0" y="6" width="16" height="2" rx="1"></rect>
                <rect id="Rectangle" x="0" y="12" width="16" height="2" rx="1"></rect>
            </g>
            <g id="logo" transform="translate(64.000000, 40.000000)">
                <polygon id="letter--klammer--rechts" fill="#35444C" fill-rule="nonzero" points="108.965676 0 101 0 108.572147 9.91173586 101.285308 20 109.300175 20 116 9.91173586"></polygon>
                <rect id="Rectangle" fill="#35444C" x="0" y="5.68434189e-14" width="66" height="20" rx="4"></rect>
                <rect id="Rectangle-Copy" fill="#FBA308" x="68" y="5.68434189e-14" width="32" height="20" rx="4"></rect>
            </g>
        </g>
    </g>
</svg>
