<svg width="120" height="23" xmlns="http://www.w3.org/2000/svg" xmlns:xlink="http://www.w3.org/1999/xlink"><defs><path id="a" d="M.258.312h15.47v21.496H.258z"/></defs><g fill="none" fill-rule="evenodd"><g transform="translate(69.856 .037)"><mask id="b" fill="#fff"><use xlink:href="#a"/></mask><path d="M13.646 12.094c1.25-1.679 1.875-3.467 1.875-5.366 0-1.8-.58-3.318-1.741-4.558C12.62.931 10.79.311 8.29.311c-1.427 0-2.737.28-3.927.84-1.19.56-2.157 1.44-2.9 2.638C.719 4.99.317 6.518.258 8.376h6.396c0-.959.084-1.613.253-1.963.168-.35.45-.525.848-.525.694 0 1.041.5 1.041 1.5 0 1.218-.758 2.598-2.275 4.136-1.518 1.54-3.576 3.298-6.174 5.277v5.007h15.381v-5.367H8.915c1.905-1.219 3.481-2.668 4.731-4.347" fill="#F49C00" mask="url(#b)"/></g><path d="M96.588 12.933h-3.165l3.165-4.873v4.873zm8.148 0h-2.11V.588H95.62L86.887 13.14v5.464h9.174v3.249h6.565v-3.25h2.11v-5.67z" fill="#F49C00"/><path fill="#35444C" d="M112.475.534h-8.4l7.984 10.564-7.682 10.755h8.452l7.064-10.755zM36.976 12.557c0 1.048-.244 1.876-.732 2.485s-1.24.914-2.258.914c-1.019 0-1.756-.305-2.212-.914-.456-.61-.684-1.437-.684-2.485V.534h-7.031v12.023c0 2.18.414 4.03 1.24 5.547.828 1.518 1.978 2.66 3.453 3.43 1.473.77 3.166 1.154 5.074 1.154 1.91 0 3.638-.384 5.186-1.154 1.548-.77 2.768-1.918 3.66-3.446.89-1.528 1.335-3.372 1.335-5.53V.533h-7.03v12.023zM14.115 8.385H7.063V.535H0v21.318h7.063v-7.798h7.052v7.798h7.063V.534h-7.063zM69.282 21.853l-7.984-10.564L68.979.534h-8.451L53.95 10.546V.534H46.89v21.319h7.062v-9.87l6.93 9.87z"/></g></svg>